<svg width="20" height="20" viewBox="0 0 20 20" fill="none" xmlns="http://www.w3.org/2000/svg">
<circle cx="10" cy="10" r="10" fill="#125DB1"/>
<path d="M14.7055 13.2939C15.0961 13.6845 15.0961 14.3172 14.7055 14.7078C14.5118 14.9031 14.2556 15 13.9993 15C13.7431 15 13.4875 14.9023 13.2925 14.707L9.99963 11.4159L6.70708 14.7063C6.51178 14.9031 6.25586 15 5.99994 15C5.74403 15 5.48842 14.9031 5.29297 14.7063C4.90237 14.3157 4.90237 13.6829 5.29297 13.2923L8.58646 9.99881L5.29297 6.70688C4.90237 6.31628 4.90237 5.68352 5.29297 5.29293C5.68356 4.90233 6.31633 4.90233 6.70692 5.29293L9.99963 8.58798L13.2931 5.29449C13.6837 4.90389 14.3165 4.90389 14.7071 5.29449C15.0977 5.68508 15.0977 6.31785 14.7071 6.70844L11.4136 10.0019L14.7055 13.2939Z" fill="white"/>
</svg>
