<svg width="35" height="35" viewBox="0 0 35 35" fill="none" xmlns="http://www.w3.org/2000/svg">
<rect width="35" height="35" rx="17.5" fill="#EA4335"/>
<path d="M15.225 10.5528C15.3937 10.214 15.7406 10 16.1188 10H19.8813C20.2594 10 20.6062 10.214 20.775 10.5528L21 11H24C24.5531 11 25 11.4478 25 12C25 12.5522 24.5531 13 24 13H12C11.4478 13 11 12.5522 11 12C11 11.4478 11.4478 11 12 11H15L15.225 10.5528ZM23.3375 24.5656C23.2875 25.3844 22.6344 26 21.8406 26H14.1594C13.3672 26 12.7116 25.3844 12.6622 24.5656L11.9719 14H24L23.3375 24.5656Z" fill="white"/>
</svg>
