<svg width="23" height="23" viewBox="0 0 23 23" fill="none" xmlns="http://www.w3.org/2000/svg">
<path d="M11.5 0C17.852 0 23 5.14805 23 11.5C23 17.852 17.852 23 11.5 23C9.06074 23 6.79219 22.2363 4.92793 20.9381C4.27656 20.4439 4.11664 19.5859 4.57305 18.9346C5.02676 18.2832 5.9207 18.126 6.57207 18.5797C7.96914 19.5545 9.66719 20.125 11.5 20.125C16.2617 20.125 20.125 16.2617 20.125 11.5C20.125 6.69785 16.2617 2.875 11.5 2.875C9.07871 2.875 6.96289 3.83902 5.39961 5.39961L6.7832 6.7832C7.46152 7.46152 6.98086 8.625 6.02402 8.625H1.07812C0.48291 8.625 0 8.14434 0 7.54688V2.60277C0 1.64234 1.16123 1.16123 1.84045 1.84045L3.36824 3.36824C5.44902 1.28881 8.32402 0 11.4596 0H11.5ZM11.5 5.75C12.0975 5.75 12.5781 6.23066 12.5781 6.82812V11.0553L15.4576 13.9707C15.9158 14.393 15.9158 15.0758 15.4576 15.4576C15.0758 15.9158 14.393 15.9158 13.9707 15.4576L10.7363 12.2232C10.5342 12.0615 10.4219 11.7875 10.4219 11.5V6.82812C10.4219 6.23066 10.9025 5.75 11.5 5.75Z" fill="white"/>
</svg>
