<svg width="26" height="24" viewBox="0 0 26 24" fill="none" xmlns="http://www.w3.org/2000/svg">
<path d="M25.991 11.9766C25.991 12.8203 25.3139 13.4813 24.5465 13.4813H23.1021L23.1337 20.9859C23.1337 21.1172 23.1247 21.2391 23.1111 21.3656V22.125C23.1111 23.1609 22.3031 24 21.3056 24H20.5833C20.5337 24 20.484 23.9578 20.4344 23.9953C20.3712 23.9578 20.308 24 20.2448 24H17.6944C16.6969 24 15.8889 23.1609 15.8889 22.125V18C15.8889 17.1703 15.2434 16.5 14.4444 16.5H11.5556C10.7566 16.5 10.1111 17.1703 10.1111 18V22.125C10.1111 23.1609 9.30312 24 8.30556 24H5.78229C5.71458 24 5.64687 23.9953 5.57917 23.9906C5.525 23.9953 5.47083 24 5.41667 24H4.69444C3.69733 24 2.88889 23.1609 2.88889 22.125V16.875C2.88889 16.8328 2.89024 16.7859 2.89295 16.7438V13.4813H1.4467C0.632847 13.4813 0 12.8203 0 11.9766C0 11.5547 0.135597 11.1797 0.45184 10.8516L12.025 0.37575C12.341 0.0469687 12.7021 0 13.0181 0C13.334 0 13.6951 0.0939375 13.9705 0.328781L25.4944 10.8516C25.8556 11.1797 26.0406 11.5547 25.991 11.9766Z" fill="white"/>
</svg>
