<svg width="23" height="23" viewBox="0 0 23 23" fill="none" xmlns="http://www.w3.org/2000/svg">
<path d="M23 11.5C23 12.4781 22.2077 13.2698 21.2308 13.2698H13.2692V21.2313C13.2692 22.2094 12.4769 23 11.5 23C10.5231 23 9.73077 22.2094 9.73077 21.2313V13.2698H1.76923C0.792284 13.2698 0 12.4781 0 11.5C0 10.5219 0.792284 9.73132 1.76923 9.73132H9.73077V1.76978C9.73077 0.791731 10.5231 0 11.5 0C12.4769 0 13.2692 0.791731 13.2692 1.76978V9.73132H21.2308C22.2094 9.73077 23 10.5214 23 11.5Z" fill="#4A4A4A"/>
</svg>
