<svg width="21" height="21" viewBox="0 0 21 21" fill="none" xmlns="http://www.w3.org/2000/svg">
<path d="M6.5625 13.2439V4.59375C6.5625 4.23691 6.26719 3.9375 5.90625 3.9375C5.54531 3.9375 5.25 4.23691 5.25 4.59375V13.2439C4.48711 13.5146 3.9375 14.2365 3.9375 15.0938C3.9375 16.1807 4.81934 17.0625 5.90625 17.0625C6.99316 17.0625 7.875 16.1807 7.875 15.0938C7.875 14.2365 7.32539 13.5146 6.5625 13.2439ZM17.0625 0C14.8936 0 13.125 1.769 13.125 3.9375C13.125 6.106 14.894 7.875 17.0625 7.875C19.231 7.875 21 6.106 21 3.9375C21 1.769 19.2322 0 17.0625 0ZM17.0625 5.25C16.3345 5.25 15.75 4.66553 15.75 3.9375C15.75 3.20947 16.3345 2.625 17.0625 2.625C17.7905 2.625 18.375 3.20947 18.375 3.9375C18.375 4.66553 17.7926 5.25 17.0625 5.25ZM10.5 4.59375C10.5 2.0557 8.44389 0 5.90625 0C3.36861 0 1.3125 2.05611 1.3125 4.59375V11.4229C0.502441 12.438 0 13.6992 0 15.0938C0 18.3545 2.64551 21 5.90625 21C9.16699 21 11.8125 18.3545 11.8125 15.0938C11.8125 13.7361 11.3101 12.4327 10.5 11.4229V4.59375ZM5.90625 18.375C4.09623 18.375 2.625 16.9034 2.625 15.0938C2.625 14.0479 3.12744 13.0889 3.9375 12.479V4.5917C3.9375 3.50479 4.81934 2.62295 5.90625 2.62295C6.99316 2.62295 7.875 3.50684 7.875 4.59375V12.4811C8.68506 13.086 9.1875 14.0499 9.1875 15.0958C9.1875 16.9025 7.71504 18.375 5.90625 18.375Z" fill="#4A4A4A"/>
</svg>
