<svg width="170" height="120" viewBox="0 0 170 120" fill="none" xmlns="http://www.w3.org/2000/svg">
<g clip-path="url(#clip0_183_2)">
<path d="M43.3703 20.6089C47.7547 20.6089 51.3089 17.0729 51.3089 12.7109C51.3089 8.34893 47.7547 4.81287 43.3703 4.81287C38.9859 4.81287 35.4316 8.34893 35.4316 12.7109C35.4316 17.0729 38.9859 20.6089 43.3703 20.6089Z" fill="#FF6584"/>
<path d="M81.9948 42.3435C81.9948 60.9793 70.8591 67.4863 57.1226 67.4863C43.386 67.4863 32.2503 60.9793 32.2503 42.3435C32.2503 23.7077 57.1226 0 57.1226 0C57.1226 0 81.9948 23.7077 81.9948 42.3435Z" fill="#F2F2F2"/>
<path d="M56.2165 64.6356L56.4713 49.0391L67.0723 29.744L56.5112 46.5924L56.6257 39.5796L63.932 25.6198L56.656 37.7238L56.8619 25.1109L64.6857 13.9972L56.8944 23.1275L57.023 0L56.2142 30.6167L56.2807 29.3536L48.3263 17.2404L56.1532 31.7782L55.4121 45.8646L55.39 45.4908L46.2198 32.7434L55.3622 46.8116L55.2695 48.5732L55.2529 48.5998L55.2605 48.7444L53.3801 84.4828H55.8925L56.1939 66.0232L65.3137 51.9894L56.2165 64.6356Z" fill="#3F3D56"/>
<path d="M156 49.9762C156 65.2305 146.885 70.5567 135.641 70.5567C124.397 70.5567 115.282 65.2305 115.282 49.9762C115.282 34.7219 135.641 15.316 135.641 15.316C135.641 15.316 156 34.7219 156 49.9762Z" fill="#F2F2F2"/>
<path d="M134.899 68.2232L135.108 55.4568L143.785 39.6629L135.14 53.454L135.234 47.7138L141.215 36.2869L135.259 46.1946L135.428 35.8705L141.832 26.7733L135.454 34.247L135.559 15.316L134.897 40.3771L134.952 39.3434L128.441 29.428L134.847 41.328L134.241 52.8583L134.223 52.5523L126.716 42.1179L134.2 53.6335L134.124 55.0755L134.11 55.0972L134.117 55.2155L132.577 84.4691H134.634L134.881 69.359L142.346 57.8717L134.899 68.2232Z" fill="#3F3D56"/>
<path d="M85.7925 87.4352C123.786 87.4352 154.585 85.8863 154.585 83.9756C154.585 82.0649 123.786 80.516 85.7925 80.516C47.7994 80.516 17 82.0649 17 83.9756C17 85.8863 47.7994 87.4352 85.7925 87.4352Z" fill="#3F3D56"/>
<path d="M127.7 90.2841C134.208 90.2841 139.483 90.0188 139.483 89.6916C139.483 89.3643 134.208 89.099 127.7 89.099C121.193 89.099 115.918 89.3643 115.918 89.6916C115.918 90.0188 121.193 90.2841 127.7 90.2841Z" fill="#3F3D56"/>
<path d="M85.0641 96.0001C91.5714 96.0001 96.8466 95.7348 96.8466 95.4075C96.8466 95.0802 91.5714 94.8149 85.0641 94.8149C78.5567 94.8149 73.2815 95.0802 73.2815 95.4075C73.2815 95.7348 78.5567 96.0001 85.0641 96.0001Z" fill="#3F3D56"/>
<path d="M52.717 91.9686C67.5839 91.9686 79.6358 91.3625 79.6358 90.6149C79.6358 89.8672 67.5839 89.2611 52.717 89.2611C37.8502 89.2611 25.7982 89.8672 25.7982 90.6149C25.7982 91.3625 37.8502 91.9686 52.717 91.9686Z" fill="#3F3D56"/>
<path d="M29.0424 79.6306C34.4544 79.6306 38.8417 75.2658 38.8417 69.8815C38.8417 64.4972 34.4544 60.1323 29.0424 60.1323C23.6304 60.1323 19.2431 64.4972 19.2431 69.8815C19.2431 75.2658 23.6304 79.6306 29.0424 79.6306Z" fill="#2F2E41"/>
<path d="M27.4634 77.5148L24.4866 77.4799L24.4238 82.786L27.4006 82.8209L27.4634 77.5148Z" fill="#2F2E41"/>
<path d="M33.417 77.5845L30.4402 77.5496L30.3774 82.8557L33.3542 82.8906L33.417 77.5845Z" fill="#2F2E41"/>
<path d="M29.3844 82.9058C29.3904 82.3946 28.2847 81.9673 26.9147 81.9512C25.5446 81.9351 24.4291 82.3365 24.423 82.8476C24.417 83.3587 25.5227 83.7861 26.8927 83.8022C28.2628 83.8182 29.3783 83.4169 29.3844 82.9058Z" fill="#2F2E41"/>
<path d="M35.3394 82.8522C35.3454 82.3411 34.2397 81.9137 32.8697 81.8976C31.4997 81.8816 30.3841 82.2829 30.3781 82.794C30.372 83.3051 31.4778 83.7325 32.8478 83.7486C34.2178 83.7646 35.3333 83.3633 35.3394 82.8522Z" fill="#2F2E41"/>
<path d="M29.3197 70.7484C31.1694 70.7484 32.6688 69.2567 32.6688 67.4165C32.6688 65.5763 31.1694 64.0845 29.3197 64.0845C27.47 64.0845 25.9706 65.5763 25.9706 67.4165C25.9706 69.2567 27.47 70.7484 29.3197 70.7484Z" fill="white"/>
<path d="M29.3197 68.5271C29.9363 68.5271 30.4361 68.0298 30.4361 67.4164C30.4361 66.803 29.9363 66.3058 29.3197 66.3058C28.7032 66.3058 28.2033 66.803 28.2033 67.4164C28.2033 68.0298 28.7032 68.5271 29.3197 68.5271Z" fill="#3F3D56"/>
<path d="M19.6448 60.7042C18.8954 57.1698 21.4667 53.6374 25.388 52.8144C29.3093 51.9914 33.0957 54.1895 33.8452 57.724C34.5946 61.2584 31.9872 62.5282 28.0659 63.3512C24.1446 64.1742 20.3943 64.2387 19.6448 60.7042Z" fill="white"/>
<path d="M43.9905 75.3204C43.9905 82.1171 39.9294 84.4902 34.9193 84.4902C34.8033 84.4902 34.6874 84.489 34.5717 84.4864C34.3396 84.4814 34.1097 84.4705 33.8825 84.4551C29.361 84.1367 25.8482 81.6415 25.8482 75.3204C25.8482 68.7788 34.2506 60.5244 34.8817 59.9135L34.8829 59.9124C34.9072 59.8887 34.9193 59.8772 34.9193 59.8772C34.9193 59.8772 43.9905 68.5236 43.9905 75.3204Z" fill="white"/>
<path d="M34.5888 83.4503L37.9066 78.8382L34.5805 83.9567L34.5717 84.4862C34.3396 84.4813 34.1096 84.4703 33.8825 84.4549L34.2401 77.6549L34.2373 77.6021L34.2434 77.5922L34.2771 76.95L30.9428 71.8187L34.2876 76.4683L34.2954 76.6046L34.5656 71.4668L31.711 66.1646L34.6004 70.5651L34.8817 59.9134L34.8828 59.8771V59.9123L34.8359 68.3118L37.6778 64.9819L34.8243 69.0354L34.7491 73.6355L37.4025 69.2207L34.7381 74.3123L34.6961 76.8697L38.5482 70.7251L34.6817 77.7621L34.5888 83.4503Z" fill="#3F3D56"/>
<path d="M105.378 79.5251C110.79 79.5251 115.177 75.1603 115.177 69.776C115.177 64.3917 110.79 60.0269 105.378 60.0269C99.9657 60.0269 95.5785 64.3917 95.5785 69.776C95.5785 75.1603 99.9657 79.5251 105.378 79.5251Z" fill="#2F2E41"/>
<path d="M106.214 77.5247L103.368 78.3948L104.935 83.4671L107.781 82.597L106.214 77.5247Z" fill="#2F2E41"/>
<path d="M111.905 75.7851L109.06 76.6552L110.626 81.7275L113.472 80.8575L111.905 75.7851Z" fill="#2F2E41"/>
<path d="M107.598 83.6857C108.908 83.2853 109.847 82.5646 109.696 82.076C109.545 81.5874 108.361 81.5159 107.052 81.9163C105.742 82.3168 104.803 83.0374 104.954 83.526C105.105 84.0146 106.289 84.0861 107.598 83.6857Z" fill="#2F2E41"/>
<path d="M113.253 81.8277C114.563 81.4273 115.502 80.7066 115.351 80.218C115.2 79.7294 114.016 79.6579 112.707 80.0583C111.397 80.4587 110.458 81.1794 110.608 81.668C110.759 82.1566 111.943 82.2281 113.253 81.8277Z" fill="#2F2E41"/>
<path d="M104.886 70.6763C106.736 70.6763 108.235 69.1845 108.235 67.3443C108.235 65.5041 106.736 64.0123 104.886 64.0123C103.036 64.0123 101.537 65.5041 101.537 67.3443C101.537 69.1845 103.036 70.6763 104.886 70.6763Z" fill="white"/>
<path d="M104.886 68.455C105.503 68.455 106.002 67.9577 106.002 67.3443C106.002 66.7309 105.503 66.2336 104.886 66.2336C104.27 66.2336 103.77 66.7309 103.77 67.3443C103.77 67.9577 104.27 68.455 104.886 68.455Z" fill="#3F3D56"/>
<path d="M93.6144 63.8877C91.8171 60.7491 93.183 56.6048 96.6651 54.6311C100.147 52.6574 104.427 53.6018 106.224 56.7404C108.022 59.8791 105.928 61.8795 102.446 63.8532C98.9636 65.8269 95.4117 67.0264 93.6144 63.8877Z" fill="white"/>
<path d="M87.9012 74.0756C87.9012 80.3147 84.1733 82.4931 79.5743 82.4931C79.4677 82.4931 79.3614 82.492 79.2552 82.4896C79.0421 82.4851 78.831 82.475 78.6225 82.4608C74.472 82.1686 71.2474 79.8781 71.2474 74.0756C71.2474 68.0708 78.9604 60.4936 79.5398 59.9329L79.5408 59.9318C79.5631 59.9101 79.5743 59.8995 79.5743 59.8995C79.5743 59.8995 87.9012 67.8366 87.9012 74.0756Z" fill="white"/>
<path d="M79.2709 81.5388L82.3164 77.305L79.2633 82.0036L79.2552 82.4897C79.0421 82.4852 78.831 82.4751 78.6225 82.4609L78.9508 76.2188L78.9482 76.1703L78.9538 76.1613L78.9848 75.5717L75.924 70.8615L78.9944 75.1296L79.0015 75.2547L79.2496 70.5385L76.6292 65.6712L79.2816 69.7107L79.5398 59.9329L79.5408 59.8995V59.9318L79.4977 67.6423L82.1064 64.5855L79.487 68.3065L79.418 72.5292L81.8538 68.4766L79.4079 73.1505L79.3693 75.498L82.9055 69.8576L79.3561 76.3172L79.2709 81.5388Z" fill="#3F3D56"/>
<path d="M120.648 76.6778C120.648 83.4745 116.587 85.8477 111.577 85.8477C111.461 85.8477 111.345 85.8464 111.229 85.8439C110.997 85.8389 110.767 85.8279 110.54 85.8125C106.019 85.4942 102.506 82.9989 102.506 76.6778C102.506 70.1362 110.908 61.8818 111.539 61.2709L111.541 61.2698C111.565 61.2462 111.577 61.2346 111.577 61.2346C111.577 61.2346 120.648 69.8811 120.648 76.6778Z" fill="white"/>
<path d="M111.247 84.8079L114.564 80.1957L111.238 85.3143L111.229 85.8438C110.997 85.8388 110.767 85.8279 110.54 85.8125L110.898 79.0124L110.895 78.9596L110.901 78.9497L110.935 78.3075L107.6 73.1763L110.945 77.8259L110.953 77.9622L111.223 72.8244L108.369 67.5222L111.258 71.9226L111.539 61.2709L111.541 61.2346V61.2698L111.494 69.6694L114.335 66.3395L111.482 70.393L111.407 74.993L114.06 70.5783L111.396 75.6699L111.354 78.2272L115.206 72.0826L111.339 79.1197L111.247 84.8079Z" fill="#3F3D56"/>
<path d="M106 75.6122C106.364 74.8485 104.677 73.2943 102.232 72.1406C99.7874 70.9869 97.5102 70.6707 97.1462 71.4344C96.7822 72.198 98.4691 73.7522 100.914 74.9059C103.359 76.0596 105.636 76.3758 106 75.6122Z" fill="#2F2E41"/>
<path d="M30.5798 74.7198C30.8958 73.9353 29.1159 72.4874 26.6041 71.4857C24.0924 70.4841 21.8 70.3081 21.4839 71.0926C21.1679 71.8771 22.9479 73.325 25.4596 74.3266C27.9713 75.3282 30.2637 75.5043 30.5798 74.7198Z" fill="#2F2E41"/>
</g>
<path d="M4.95752 107.758V117H3.05957V107.758H4.95752ZM7.80127 107.758V109.25H0.260254V107.758H7.80127ZM10.7021 110.132V117H8.86768V110.132H10.7021ZM8.75342 108.342C8.75342 108.075 8.84652 107.855 9.03271 107.682C9.21891 107.508 9.46859 107.421 9.78174 107.421C10.0907 107.421 10.3382 107.508 10.5244 107.682C10.7148 107.855 10.8101 108.075 10.8101 108.342C10.8101 108.608 10.7148 108.828 10.5244 109.002C10.3382 109.175 10.0907 109.262 9.78174 109.262C9.46859 109.262 9.21891 109.175 9.03271 109.002C8.84652 108.828 8.75342 108.608 8.75342 108.342ZM16.269 115.502V107.25H18.1099V117H16.4531L16.269 115.502ZM11.9272 113.648V113.515C11.9272 112.99 11.9865 112.514 12.105 112.087C12.2235 111.655 12.397 111.285 12.6255 110.976C12.854 110.667 13.1354 110.428 13.4697 110.259C13.804 110.09 14.1849 110.005 14.6123 110.005C15.0143 110.005 15.3656 110.09 15.666 110.259C15.9707 110.428 16.2288 110.669 16.4404 110.982C16.6562 111.291 16.8298 111.657 16.9609 112.081C17.0921 112.5 17.1873 112.959 17.2466 113.458V113.75C17.1873 114.228 17.0921 114.673 16.9609 115.083C16.8298 115.493 16.6562 115.853 16.4404 116.162C16.2288 116.467 15.9707 116.704 15.666 116.873C15.3613 117.042 15.0059 117.127 14.5996 117.127C14.1722 117.127 13.7913 117.04 13.457 116.867C13.127 116.693 12.8477 116.45 12.6191 116.137C12.3949 115.824 12.2235 115.455 12.105 115.032C11.9865 114.609 11.9272 114.148 11.9272 113.648ZM13.7554 113.515V113.648C13.7554 113.932 13.7765 114.196 13.8188 114.442C13.8654 114.687 13.9395 114.905 14.041 115.096C14.1468 115.282 14.2822 115.428 14.4473 115.534C14.6165 115.635 14.8218 115.686 15.063 115.686C15.3761 115.686 15.6343 115.616 15.8374 115.477C16.0405 115.333 16.195 115.136 16.3008 114.886C16.4108 114.637 16.4743 114.349 16.4912 114.023V113.191C16.4785 112.925 16.4404 112.686 16.377 112.474C16.3177 112.258 16.2288 112.074 16.1104 111.922C15.9961 111.77 15.8522 111.651 15.6787 111.566C15.5094 111.482 15.3084 111.439 15.0757 111.439C14.8387 111.439 14.6356 111.494 14.4663 111.604C14.297 111.71 14.1595 111.856 14.0537 112.042C13.9521 112.229 13.876 112.449 13.8252 112.703C13.7786 112.952 13.7554 113.223 13.7554 113.515ZM23.2451 115.451V112.392C23.2451 112.172 23.2091 111.983 23.1372 111.827C23.0653 111.666 22.9531 111.541 22.8008 111.452C22.6527 111.363 22.4601 111.319 22.2231 111.319C22.02 111.319 21.8444 111.355 21.6963 111.427C21.5482 111.494 21.4339 111.594 21.3535 111.725C21.2731 111.852 21.2329 112.002 21.2329 112.176H19.4048C19.4048 111.884 19.4725 111.607 19.6079 111.344C19.7433 111.082 19.9401 110.851 20.1982 110.652C20.4564 110.449 20.7632 110.291 21.1187 110.176C21.4784 110.062 21.8804 110.005 22.3247 110.005C22.8579 110.005 23.3319 110.094 23.7466 110.271C24.1613 110.449 24.4871 110.716 24.7241 111.071C24.9653 111.427 25.0859 111.871 25.0859 112.404V115.343C25.0859 115.72 25.1092 116.029 25.1558 116.27C25.2023 116.507 25.27 116.714 25.3589 116.892V117H23.5117C23.4229 116.814 23.3551 116.581 23.3086 116.302C23.2663 116.018 23.2451 115.735 23.2451 115.451ZM23.4863 112.817L23.499 113.852H22.4771C22.2358 113.852 22.0264 113.879 21.8486 113.934C21.6709 113.989 21.5249 114.067 21.4106 114.169C21.2964 114.266 21.2118 114.381 21.1567 114.512C21.106 114.643 21.0806 114.787 21.0806 114.943C21.0806 115.1 21.1165 115.242 21.1885 115.369C21.2604 115.491 21.3641 115.589 21.4995 115.661C21.6349 115.728 21.7936 115.762 21.9756 115.762C22.2507 115.762 22.4897 115.707 22.6929 115.597C22.896 115.487 23.0526 115.352 23.1626 115.191C23.2769 115.03 23.3361 114.878 23.3403 114.734L23.8228 115.508C23.755 115.682 23.6619 115.862 23.5435 116.048C23.4292 116.234 23.2832 116.41 23.1055 116.575C22.9277 116.736 22.714 116.869 22.4644 116.975C22.2147 117.076 21.9185 117.127 21.5757 117.127C21.1398 117.127 20.7441 117.04 20.3887 116.867C20.0374 116.689 19.7581 116.446 19.5508 116.137C19.3477 115.824 19.2461 115.468 19.2461 115.07C19.2461 114.711 19.3138 114.391 19.4492 114.112C19.5846 113.833 19.7835 113.598 20.0459 113.407C20.3125 113.213 20.6447 113.067 21.0425 112.969C21.4403 112.868 21.9015 112.817 22.4263 112.817H23.4863ZM28.3232 107.244V117H26.4951V107.244H28.3232ZM32.6523 110.132L29.6689 113.534L28.0693 115.153L27.4028 113.833L28.6724 112.22L30.4561 110.132H32.6523ZM30.7544 117L28.7231 113.826L29.9863 112.722L32.8618 117H30.7544ZM40.3838 115.451V112.392C40.3838 112.172 40.3478 111.983 40.2759 111.827C40.2039 111.666 40.0918 111.541 39.9395 111.452C39.7913 111.363 39.5988 111.319 39.3618 111.319C39.1587 111.319 38.9831 111.355 38.835 111.427C38.6868 111.494 38.5726 111.594 38.4922 111.725C38.4118 111.852 38.3716 112.002 38.3716 112.176H36.5435C36.5435 111.884 36.6112 111.607 36.7466 111.344C36.882 111.082 37.0788 110.851 37.3369 110.652C37.5951 110.449 37.9019 110.291 38.2573 110.176C38.617 110.062 39.019 110.005 39.4634 110.005C39.9966 110.005 40.4705 110.094 40.8853 110.271C41.3 110.449 41.6258 110.716 41.8628 111.071C42.104 111.427 42.2246 111.871 42.2246 112.404V115.343C42.2246 115.72 42.2479 116.029 42.2944 116.27C42.341 116.507 42.4087 116.714 42.4976 116.892V117H40.6504C40.5615 116.814 40.4938 116.581 40.4473 116.302C40.4049 116.018 40.3838 115.735 40.3838 115.451ZM40.625 112.817L40.6377 113.852H39.6157C39.3745 113.852 39.165 113.879 38.9873 113.934C38.8096 113.989 38.6636 114.067 38.5493 114.169C38.4351 114.266 38.3504 114.381 38.2954 114.512C38.2446 114.643 38.2192 114.787 38.2192 114.943C38.2192 115.1 38.2552 115.242 38.3271 115.369C38.3991 115.491 38.5028 115.589 38.6382 115.661C38.7736 115.728 38.9323 115.762 39.1143 115.762C39.3893 115.762 39.6284 115.707 39.8315 115.597C40.0347 115.487 40.1912 115.352 40.3013 115.191C40.4155 115.03 40.4748 114.878 40.479 114.734L40.9614 115.508C40.8937 115.682 40.8006 115.862 40.6821 116.048C40.5679 116.234 40.4219 116.41 40.2441 116.575C40.0664 116.736 39.8527 116.869 39.603 116.975C39.3534 117.076 39.0571 117.127 38.7144 117.127C38.2785 117.127 37.8828 117.04 37.5273 116.867C37.1761 116.689 36.8968 116.446 36.6895 116.137C36.4863 115.824 36.3848 115.468 36.3848 115.07C36.3848 114.711 36.4525 114.391 36.5879 114.112C36.7233 113.833 36.9222 113.598 37.1846 113.407C37.4512 113.213 37.7834 113.067 38.1812 112.969C38.5789 112.868 39.0402 112.817 39.5649 112.817H40.625ZM47.6899 115.502V107.25H49.5308V117H47.874L47.6899 115.502ZM43.3481 113.648V113.515C43.3481 112.99 43.4074 112.514 43.5259 112.087C43.6444 111.655 43.8179 111.285 44.0464 110.976C44.2749 110.667 44.5563 110.428 44.8906 110.259C45.2249 110.09 45.6058 110.005 46.0332 110.005C46.4352 110.005 46.7865 110.09 47.0869 110.259C47.3916 110.428 47.6497 110.669 47.8613 110.982C48.0771 111.291 48.2507 111.657 48.3818 112.081C48.513 112.5 48.6082 112.959 48.6675 113.458V113.75C48.6082 114.228 48.513 114.673 48.3818 115.083C48.2507 115.493 48.0771 115.853 47.8613 116.162C47.6497 116.467 47.3916 116.704 47.0869 116.873C46.7822 117.042 46.4268 117.127 46.0205 117.127C45.5931 117.127 45.2122 117.04 44.8779 116.867C44.5479 116.693 44.2686 116.45 44.04 116.137C43.8158 115.824 43.6444 115.455 43.5259 115.032C43.4074 114.609 43.3481 114.148 43.3481 113.648ZM45.1763 113.515V113.648C45.1763 113.932 45.1974 114.196 45.2397 114.442C45.2863 114.687 45.3604 114.905 45.4619 115.096C45.5677 115.282 45.7031 115.428 45.8682 115.534C46.0374 115.635 46.2427 115.686 46.4839 115.686C46.797 115.686 47.0552 115.616 47.2583 115.477C47.4614 115.333 47.6159 115.136 47.7217 114.886C47.8317 114.637 47.8952 114.349 47.9121 114.023V113.191C47.8994 112.925 47.8613 112.686 47.7979 112.474C47.7386 112.258 47.6497 112.074 47.5312 111.922C47.417 111.77 47.2731 111.651 47.0996 111.566C46.9303 111.482 46.7293 111.439 46.4966 111.439C46.2596 111.439 46.0565 111.494 45.8872 111.604C45.7179 111.71 45.5804 111.856 45.4746 112.042C45.373 112.229 45.2969 112.449 45.2461 112.703C45.1995 112.952 45.1763 113.223 45.1763 113.515ZM54.666 115.451V112.392C54.666 112.172 54.63 111.983 54.5581 111.827C54.4862 111.666 54.374 111.541 54.2217 111.452C54.0736 111.363 53.881 111.319 53.644 111.319C53.4409 111.319 53.2653 111.355 53.1172 111.427C52.9691 111.494 52.8548 111.594 52.7744 111.725C52.694 111.852 52.6538 112.002 52.6538 112.176H50.8257C50.8257 111.884 50.8934 111.607 51.0288 111.344C51.1642 111.082 51.361 110.851 51.6191 110.652C51.8773 110.449 52.1841 110.291 52.5396 110.176C52.8993 110.062 53.3013 110.005 53.7456 110.005C54.2788 110.005 54.7528 110.094 55.1675 110.271C55.5822 110.449 55.908 110.716 56.145 111.071C56.3862 111.427 56.5068 111.871 56.5068 112.404V115.343C56.5068 115.72 56.5301 116.029 56.5767 116.27C56.6232 116.507 56.6909 116.714 56.7798 116.892V117H54.9326C54.8438 116.814 54.776 116.581 54.7295 116.302C54.6872 116.018 54.666 115.735 54.666 115.451ZM54.9072 112.817L54.9199 113.852H53.8979C53.6567 113.852 53.4473 113.879 53.2695 113.934C53.0918 113.989 52.9458 114.067 52.8315 114.169C52.7173 114.266 52.6326 114.381 52.5776 114.512C52.5269 114.643 52.5015 114.787 52.5015 114.943C52.5015 115.1 52.5374 115.242 52.6094 115.369C52.6813 115.491 52.785 115.589 52.9204 115.661C53.0558 115.728 53.2145 115.762 53.3965 115.762C53.6715 115.762 53.9106 115.707 54.1138 115.597C54.3169 115.487 54.4735 115.352 54.5835 115.191C54.6978 115.03 54.757 114.878 54.7612 114.734L55.2437 115.508C55.1759 115.682 55.0828 115.862 54.9644 116.048C54.8501 116.234 54.7041 116.41 54.5264 116.575C54.3486 116.736 54.1349 116.869 53.8853 116.975C53.6356 117.076 53.3394 117.127 52.9966 117.127C52.5607 117.127 52.165 117.04 51.8096 116.867C51.4583 116.689 51.179 116.446 50.9717 116.137C50.7686 115.824 50.667 115.468 50.667 115.07C50.667 114.711 50.7347 114.391 50.8701 114.112C51.0055 113.833 51.2044 113.598 51.4668 113.407C51.7334 113.213 52.0656 113.067 52.4634 112.969C52.8612 112.868 53.3224 112.817 53.8472 112.817H54.9072ZM63.9907 115.699C64.215 115.699 64.4139 115.656 64.5874 115.572C64.7609 115.483 64.8963 115.36 64.9937 115.204C65.0952 115.043 65.1481 114.854 65.1523 114.639H66.8726C66.8683 115.121 66.7393 115.551 66.4854 115.927C66.2314 116.3 65.8908 116.594 65.4634 116.81C65.036 117.021 64.5578 117.127 64.0288 117.127C63.4956 117.127 63.0301 117.038 62.6323 116.86C62.2388 116.683 61.9108 116.437 61.6484 116.124C61.3861 115.807 61.1893 115.438 61.0581 115.02C60.9269 114.596 60.8613 114.144 60.8613 113.661V113.477C60.8613 112.99 60.9269 112.538 61.0581 112.119C61.1893 111.695 61.3861 111.327 61.6484 111.014C61.9108 110.697 62.2388 110.449 62.6323 110.271C63.0259 110.094 63.4871 110.005 64.0161 110.005C64.5789 110.005 65.0719 110.113 65.4951 110.329C65.9225 110.544 66.2568 110.853 66.498 111.255C66.7435 111.653 66.8683 112.125 66.8726 112.671H65.1523C65.1481 112.442 65.0994 112.235 65.0063 112.049C64.9175 111.863 64.7863 111.715 64.6128 111.604C64.4435 111.49 64.234 111.433 63.9844 111.433C63.7178 111.433 63.4998 111.49 63.3306 111.604C63.1613 111.715 63.0301 111.867 62.937 112.062C62.8439 112.252 62.7783 112.47 62.7402 112.715C62.7064 112.957 62.6895 113.21 62.6895 113.477V113.661C62.6895 113.928 62.7064 114.184 62.7402 114.429C62.7741 114.675 62.8376 114.893 62.9307 115.083C63.028 115.273 63.1613 115.424 63.3306 115.534C63.4998 115.644 63.7199 115.699 63.9907 115.699ZM71.6396 115.451V112.392C71.6396 112.172 71.6037 111.983 71.5317 111.827C71.4598 111.666 71.3477 111.541 71.1953 111.452C71.0472 111.363 70.8547 111.319 70.6177 111.319C70.4146 111.319 70.2389 111.355 70.0908 111.427C69.9427 111.494 69.8285 111.594 69.748 111.725C69.6676 111.852 69.6274 112.002 69.6274 112.176H67.7993C67.7993 111.884 67.867 111.607 68.0024 111.344C68.1379 111.082 68.3346 110.851 68.5928 110.652C68.8509 110.449 69.1577 110.291 69.5132 110.176C69.8729 110.062 70.2749 110.005 70.7192 110.005C71.2524 110.005 71.7264 110.094 72.1411 110.271C72.5558 110.449 72.8817 110.716 73.1187 111.071C73.3599 111.427 73.4805 111.871 73.4805 112.404V115.343C73.4805 115.72 73.5037 116.029 73.5503 116.27C73.5968 116.507 73.6646 116.714 73.7534 116.892V117H71.9062C71.8174 116.814 71.7497 116.581 71.7031 116.302C71.6608 116.018 71.6396 115.735 71.6396 115.451ZM71.8809 112.817L71.8936 113.852H70.8716C70.6304 113.852 70.4209 113.879 70.2432 113.934C70.0654 113.989 69.9194 114.067 69.8052 114.169C69.6909 114.266 69.6063 114.381 69.5513 114.512C69.5005 114.643 69.4751 114.787 69.4751 114.943C69.4751 115.1 69.5111 115.242 69.583 115.369C69.6549 115.491 69.7586 115.589 69.894 115.661C70.0295 115.728 70.1882 115.762 70.3701 115.762C70.6452 115.762 70.8843 115.707 71.0874 115.597C71.2905 115.487 71.4471 115.352 71.5571 115.191C71.6714 115.03 71.7306 114.878 71.7349 114.734L72.2173 115.508C72.1496 115.682 72.0565 115.862 71.938 116.048C71.8237 116.234 71.6777 116.41 71.5 116.575C71.3223 116.736 71.1086 116.869 70.8589 116.975C70.6092 117.076 70.313 117.127 69.9702 117.127C69.5343 117.127 69.1387 117.04 68.7832 116.867C68.432 116.689 68.1527 116.446 67.9453 116.137C67.7422 115.824 67.6406 115.468 67.6406 115.07C67.6406 114.711 67.7083 114.391 67.8438 114.112C67.9792 113.833 68.1781 113.598 68.4404 113.407C68.707 113.213 69.0392 113.067 69.437 112.969C69.8348 112.868 70.2961 112.817 70.8208 112.817H71.8809ZM78.2539 110.132V111.427H74.2549V110.132H78.2539ZM75.2451 108.437H77.0732V114.931C77.0732 115.13 77.0986 115.282 77.1494 115.388C77.2044 115.493 77.2848 115.568 77.3906 115.61C77.4964 115.648 77.6297 115.667 77.7905 115.667C77.9048 115.667 78.0063 115.663 78.0952 115.654C78.1883 115.642 78.2666 115.629 78.3301 115.616L78.3364 116.962C78.1799 117.013 78.0106 117.053 77.8286 117.083C77.6466 117.112 77.4456 117.127 77.2256 117.127C76.8236 117.127 76.4723 117.061 76.1719 116.93C75.8757 116.795 75.6471 116.579 75.4863 116.283C75.3255 115.986 75.2451 115.597 75.2451 115.115V108.437ZM83.002 115.451V112.392C83.002 112.172 82.966 111.983 82.894 111.827C82.8221 111.666 82.71 111.541 82.5576 111.452C82.4095 111.363 82.217 111.319 81.98 111.319C81.7769 111.319 81.6012 111.355 81.4531 111.427C81.305 111.494 81.1908 111.594 81.1104 111.725C81.0299 111.852 80.9897 112.002 80.9897 112.176H79.1616C79.1616 111.884 79.2293 111.607 79.3647 111.344C79.5002 111.082 79.6969 110.851 79.9551 110.652C80.2132 110.449 80.52 110.291 80.8755 110.176C81.2352 110.062 81.6372 110.005 82.0815 110.005C82.6147 110.005 83.0887 110.094 83.5034 110.271C83.9181 110.449 84.244 110.716 84.481 111.071C84.7222 111.427 84.8428 111.871 84.8428 112.404V115.343C84.8428 115.72 84.866 116.029 84.9126 116.27C84.9591 116.507 85.0269 116.714 85.1157 116.892V117H83.2686C83.1797 116.814 83.112 116.581 83.0654 116.302C83.0231 116.018 83.002 115.735 83.002 115.451ZM83.2432 112.817L83.2559 113.852H82.2339C81.9927 113.852 81.7832 113.879 81.6055 113.934C81.4277 113.989 81.2817 114.067 81.1675 114.169C81.0532 114.266 80.9686 114.381 80.9136 114.512C80.8628 114.643 80.8374 114.787 80.8374 114.943C80.8374 115.1 80.8734 115.242 80.9453 115.369C81.0173 115.491 81.1209 115.589 81.2563 115.661C81.3918 115.728 81.5505 115.762 81.7324 115.762C82.0075 115.762 82.2466 115.707 82.4497 115.597C82.6528 115.487 82.8094 115.352 82.9194 115.191C83.0337 115.03 83.0929 114.878 83.0972 114.734L83.5796 115.508C83.5119 115.682 83.4188 115.862 83.3003 116.048C83.186 116.234 83.04 116.41 82.8623 116.575C82.6846 116.736 82.4709 116.869 82.2212 116.975C81.9715 117.076 81.6753 117.127 81.3325 117.127C80.8966 117.127 80.501 117.04 80.1455 116.867C79.7943 116.689 79.515 116.446 79.3076 116.137C79.1045 115.824 79.0029 115.468 79.0029 115.07C79.0029 114.711 79.0706 114.391 79.2061 114.112C79.3415 113.833 79.5404 113.598 79.8027 113.407C80.0693 113.213 80.4015 113.067 80.7993 112.969C81.1971 112.868 81.6584 112.817 82.1831 112.817H83.2432ZM89.6162 110.132V111.427H85.6172V110.132H89.6162ZM86.6074 108.437H88.4355V114.931C88.4355 115.13 88.4609 115.282 88.5117 115.388C88.5667 115.493 88.6471 115.568 88.7529 115.61C88.8587 115.648 88.992 115.667 89.1528 115.667C89.2671 115.667 89.3687 115.663 89.4575 115.654C89.5506 115.642 89.6289 115.629 89.6924 115.616L89.6987 116.962C89.5422 117.013 89.3729 117.053 89.1909 117.083C89.009 117.112 88.8079 117.127 88.5879 117.127C88.1859 117.127 87.8346 117.061 87.5342 116.93C87.238 116.795 87.0094 116.579 86.8486 116.283C86.6878 115.986 86.6074 115.597 86.6074 115.115V108.437ZM94.3643 115.451V112.392C94.3643 112.172 94.3283 111.983 94.2563 111.827C94.1844 111.666 94.0723 111.541 93.9199 111.452C93.7718 111.363 93.5793 111.319 93.3423 111.319C93.1392 111.319 92.9635 111.355 92.8154 111.427C92.6673 111.494 92.5531 111.594 92.4727 111.725C92.3923 111.852 92.3521 112.002 92.3521 112.176H90.5239C90.5239 111.884 90.5916 111.607 90.7271 111.344C90.8625 111.082 91.0592 110.851 91.3174 110.652C91.5755 110.449 91.8823 110.291 92.2378 110.176C92.5975 110.062 92.9995 110.005 93.4438 110.005C93.9771 110.005 94.451 110.094 94.8657 110.271C95.2804 110.449 95.6063 110.716 95.8433 111.071C96.0845 111.427 96.2051 111.871 96.2051 112.404V115.343C96.2051 115.72 96.2284 116.029 96.2749 116.27C96.3215 116.507 96.3892 116.714 96.478 116.892V117H94.6309C94.542 116.814 94.4743 116.581 94.4277 116.302C94.3854 116.018 94.3643 115.735 94.3643 115.451ZM94.6055 112.817L94.6182 113.852H93.5962C93.355 113.852 93.1455 113.879 92.9678 113.934C92.79 113.989 92.644 114.067 92.5298 114.169C92.4155 114.266 92.3309 114.381 92.2759 114.512C92.2251 114.643 92.1997 114.787 92.1997 114.943C92.1997 115.1 92.2357 115.242 92.3076 115.369C92.3796 115.491 92.4832 115.589 92.6187 115.661C92.7541 115.728 92.9128 115.762 93.0947 115.762C93.3698 115.762 93.6089 115.707 93.812 115.597C94.0151 115.487 94.1717 115.352 94.2817 115.191C94.396 115.03 94.4552 114.878 94.4595 114.734L94.9419 115.508C94.8742 115.682 94.7811 115.862 94.6626 116.048C94.5483 116.234 94.4023 116.41 94.2246 116.575C94.0469 116.736 93.8332 116.869 93.5835 116.975C93.3338 117.076 93.0376 117.127 92.6948 117.127C92.259 117.127 91.8633 117.04 91.5078 116.867C91.1566 116.689 90.8773 116.446 90.6699 116.137C90.4668 115.824 90.3652 115.468 90.3652 115.07C90.3652 114.711 90.4329 114.391 90.5684 114.112C90.7038 113.833 90.9027 113.598 91.165 113.407C91.4316 113.213 91.7638 113.067 92.1616 112.969C92.5594 112.868 93.0207 112.817 93.5454 112.817H94.6055ZM99.4043 111.598V117H97.5762V110.132H99.29L99.4043 111.598ZM99.1377 113.325H98.6426C98.6426 112.817 98.7082 112.36 98.8394 111.954C98.9705 111.543 99.1546 111.194 99.3916 110.906C99.6286 110.614 99.91 110.392 100.236 110.24C100.566 110.083 100.934 110.005 101.34 110.005C101.662 110.005 101.956 110.051 102.223 110.145C102.489 110.238 102.718 110.386 102.908 110.589C103.103 110.792 103.251 111.061 103.353 111.395C103.458 111.729 103.511 112.138 103.511 112.62V117H101.67V112.614C101.67 112.309 101.628 112.072 101.543 111.903C101.459 111.734 101.334 111.615 101.169 111.547C101.008 111.475 100.809 111.439 100.572 111.439C100.327 111.439 100.113 111.488 99.9312 111.585C99.7534 111.683 99.6053 111.818 99.4868 111.992C99.3726 112.161 99.2858 112.36 99.2266 112.588C99.1673 112.817 99.1377 113.062 99.1377 113.325ZM111.852 113.706H109.497V112.22H111.852C112.216 112.22 112.512 112.161 112.741 112.042C112.969 111.92 113.136 111.75 113.242 111.535C113.348 111.319 113.401 111.076 113.401 110.805C113.401 110.53 113.348 110.274 113.242 110.037C113.136 109.8 112.969 109.609 112.741 109.465C112.512 109.321 112.216 109.25 111.852 109.25H110.157V117H108.253V107.758H111.852C112.576 107.758 113.196 107.889 113.712 108.151C114.232 108.41 114.63 108.767 114.905 109.224C115.18 109.681 115.318 110.204 115.318 110.792C115.318 111.389 115.18 111.905 114.905 112.341C114.63 112.777 114.232 113.113 113.712 113.35C113.196 113.587 112.576 113.706 111.852 113.706ZM119.59 117.127C119.057 117.127 118.578 117.042 118.155 116.873C117.732 116.7 117.372 116.46 117.076 116.156C116.784 115.851 116.56 115.498 116.403 115.096C116.247 114.689 116.168 114.258 116.168 113.801V113.547C116.168 113.026 116.243 112.55 116.391 112.119C116.539 111.687 116.75 111.312 117.025 110.995C117.305 110.678 117.643 110.434 118.041 110.265C118.439 110.092 118.887 110.005 119.387 110.005C119.873 110.005 120.305 110.085 120.682 110.246C121.058 110.407 121.374 110.635 121.627 110.932C121.886 111.228 122.08 111.583 122.211 111.998C122.343 112.409 122.408 112.866 122.408 113.369V114.131H116.949V112.912H120.612V112.772C120.612 112.519 120.565 112.292 120.472 112.093C120.383 111.89 120.248 111.729 120.066 111.611C119.884 111.492 119.651 111.433 119.368 111.433C119.126 111.433 118.919 111.486 118.746 111.592C118.572 111.698 118.43 111.846 118.32 112.036C118.215 112.227 118.134 112.451 118.079 112.709C118.028 112.963 118.003 113.242 118.003 113.547V113.801C118.003 114.076 118.041 114.33 118.117 114.562C118.198 114.795 118.31 114.996 118.454 115.166C118.602 115.335 118.779 115.466 118.987 115.559C119.198 115.652 119.438 115.699 119.704 115.699C120.034 115.699 120.341 115.635 120.625 115.508C120.912 115.377 121.16 115.18 121.367 114.918L122.256 115.883C122.112 116.09 121.915 116.289 121.666 116.479C121.42 116.67 121.124 116.826 120.777 116.949C120.43 117.068 120.034 117.127 119.59 117.127ZM125.277 111.63V117H123.449V110.132H125.169L125.277 111.63ZM127.347 110.087L127.315 111.782C127.226 111.77 127.118 111.759 126.991 111.75C126.868 111.738 126.756 111.731 126.655 111.731C126.397 111.731 126.172 111.765 125.982 111.833C125.796 111.896 125.639 111.992 125.512 112.119C125.389 112.246 125.296 112.4 125.233 112.582C125.174 112.764 125.14 112.971 125.131 113.204L124.763 113.09C124.763 112.646 124.808 112.237 124.896 111.865C124.985 111.488 125.114 111.16 125.284 110.881C125.457 110.602 125.669 110.386 125.918 110.233C126.168 110.081 126.454 110.005 126.775 110.005C126.877 110.005 126.981 110.013 127.086 110.03C127.192 110.043 127.279 110.062 127.347 110.087ZM128.312 110.132H130.146V117.413C130.146 117.92 130.053 118.35 129.867 118.701C129.681 119.052 129.412 119.319 129.061 119.501C128.709 119.683 128.284 119.774 127.785 119.774C127.628 119.774 127.476 119.765 127.328 119.749C127.175 119.732 127.019 119.704 126.858 119.666L126.864 118.263C126.966 118.28 127.065 118.293 127.163 118.301C127.256 118.314 127.351 118.32 127.448 118.32C127.639 118.32 127.797 118.289 127.924 118.225C128.051 118.162 128.146 118.062 128.21 117.927C128.278 117.796 128.312 117.624 128.312 117.413V110.132ZM128.166 108.342C128.166 108.075 128.259 107.855 128.445 107.682C128.635 107.508 128.885 107.421 129.194 107.421C129.507 107.421 129.757 107.508 129.943 107.682C130.129 107.855 130.222 108.075 130.222 108.342C130.222 108.608 130.129 108.828 129.943 109.002C129.757 109.175 129.507 109.262 129.194 109.262C128.885 109.262 128.635 109.175 128.445 109.002C128.259 108.828 128.166 108.608 128.166 108.342ZM135.307 115.451V112.392C135.307 112.172 135.271 111.983 135.199 111.827C135.127 111.666 135.015 111.541 134.862 111.452C134.714 111.363 134.522 111.319 134.285 111.319C134.082 111.319 133.906 111.355 133.758 111.427C133.61 111.494 133.495 111.594 133.415 111.725C133.335 111.852 133.294 112.002 133.294 112.176H131.466C131.466 111.884 131.534 111.607 131.669 111.344C131.805 111.082 132.002 110.851 132.26 110.652C132.518 110.449 132.825 110.291 133.18 110.176C133.54 110.062 133.942 110.005 134.386 110.005C134.919 110.005 135.393 110.094 135.808 110.271C136.223 110.449 136.549 110.716 136.786 111.071C137.027 111.427 137.147 111.871 137.147 112.404V115.343C137.147 115.72 137.171 116.029 137.217 116.27C137.264 116.507 137.332 116.714 137.42 116.892V117H135.573C135.484 116.814 135.417 116.581 135.37 116.302C135.328 116.018 135.307 115.735 135.307 115.451ZM135.548 112.817L135.561 113.852H134.539C134.297 113.852 134.088 113.879 133.91 113.934C133.732 113.989 133.586 114.067 133.472 114.169C133.358 114.266 133.273 114.381 133.218 114.512C133.167 114.643 133.142 114.787 133.142 114.943C133.142 115.1 133.178 115.242 133.25 115.369C133.322 115.491 133.426 115.589 133.561 115.661C133.696 115.728 133.855 115.762 134.037 115.762C134.312 115.762 134.551 115.707 134.754 115.597C134.958 115.487 135.114 115.352 135.224 115.191C135.338 115.03 135.398 114.878 135.402 114.734L135.884 115.508C135.817 115.682 135.723 115.862 135.605 116.048C135.491 116.234 135.345 116.41 135.167 116.575C134.989 116.736 134.776 116.869 134.526 116.975C134.276 117.076 133.98 117.127 133.637 117.127C133.201 117.127 132.806 117.04 132.45 116.867C132.099 116.689 131.82 116.446 131.612 116.137C131.409 115.824 131.308 115.468 131.308 115.07C131.308 114.711 131.375 114.391 131.511 114.112C131.646 113.833 131.845 113.598 132.107 113.407C132.374 113.213 132.706 113.067 133.104 112.969C133.502 112.868 133.963 112.817 134.488 112.817H135.548ZM140.486 107.25V117H138.652V107.25H140.486ZM145.704 115.451V112.392C145.704 112.172 145.668 111.983 145.596 111.827C145.524 111.666 145.412 111.541 145.26 111.452C145.112 111.363 144.919 111.319 144.682 111.319C144.479 111.319 144.303 111.355 144.155 111.427C144.007 111.494 143.893 111.594 143.812 111.725C143.732 111.852 143.692 112.002 143.692 112.176H141.864C141.864 111.884 141.931 111.607 142.067 111.344C142.202 111.082 142.399 110.851 142.657 110.652C142.915 110.449 143.222 110.291 143.578 110.176C143.937 110.062 144.339 110.005 144.784 110.005C145.317 110.005 145.791 110.094 146.206 110.271C146.62 110.449 146.946 110.716 147.183 111.071C147.424 111.427 147.545 111.871 147.545 112.404V115.343C147.545 115.72 147.568 116.029 147.615 116.27C147.661 116.507 147.729 116.714 147.818 116.892V117H145.971C145.882 116.814 145.814 116.581 145.768 116.302C145.725 116.018 145.704 115.735 145.704 115.451ZM145.945 112.817L145.958 113.852H144.936C144.695 113.852 144.485 113.879 144.308 113.934C144.13 113.989 143.984 114.067 143.87 114.169C143.755 114.266 143.671 114.381 143.616 114.512C143.565 114.643 143.54 114.787 143.54 114.943C143.54 115.1 143.576 115.242 143.647 115.369C143.719 115.491 143.823 115.589 143.958 115.661C144.094 115.728 144.253 115.762 144.435 115.762C144.71 115.762 144.949 115.707 145.152 115.597C145.355 115.487 145.512 115.352 145.622 115.191C145.736 115.03 145.795 114.878 145.799 114.734L146.282 115.508C146.214 115.682 146.121 115.862 146.002 116.048C145.888 116.234 145.742 116.41 145.564 116.575C145.387 116.736 145.173 116.869 144.923 116.975C144.674 117.076 144.377 117.127 144.035 117.127C143.599 117.127 143.203 117.04 142.848 116.867C142.496 116.689 142.217 116.446 142.01 116.137C141.807 115.824 141.705 115.468 141.705 115.07C141.705 114.711 141.773 114.391 141.908 114.112C142.044 113.833 142.243 113.598 142.505 113.407C142.771 113.213 143.104 113.067 143.501 112.969C143.899 112.868 144.361 112.817 144.885 112.817H145.945ZM150.744 111.598V117H148.916V110.132H150.63L150.744 111.598ZM150.478 113.325H149.982C149.982 112.817 150.048 112.36 150.179 111.954C150.31 111.543 150.494 111.194 150.731 110.906C150.968 110.614 151.25 110.392 151.576 110.24C151.906 110.083 152.274 110.005 152.68 110.005C153.002 110.005 153.296 110.051 153.562 110.145C153.829 110.238 154.058 110.386 154.248 110.589C154.443 110.792 154.591 111.061 154.692 111.395C154.798 111.729 154.851 112.138 154.851 112.62V117H153.01V112.614C153.01 112.309 152.968 112.072 152.883 111.903C152.799 111.734 152.674 111.615 152.509 111.547C152.348 111.475 152.149 111.439 151.912 111.439C151.667 111.439 151.453 111.488 151.271 111.585C151.093 111.683 150.945 111.818 150.827 111.992C150.712 112.161 150.626 112.36 150.566 112.588C150.507 112.817 150.478 113.062 150.478 113.325ZM159.948 115.451V112.392C159.948 112.172 159.912 111.983 159.84 111.827C159.768 111.666 159.656 111.541 159.504 111.452C159.356 111.363 159.163 111.319 158.926 111.319C158.723 111.319 158.548 111.355 158.399 111.427C158.251 111.494 158.137 111.594 158.057 111.725C157.976 111.852 157.936 112.002 157.936 112.176H156.108C156.108 111.884 156.176 111.607 156.311 111.344C156.446 111.082 156.643 110.851 156.901 110.652C157.16 110.449 157.466 110.291 157.822 110.176C158.181 110.062 158.583 110.005 159.028 110.005C159.561 110.005 160.035 110.094 160.45 110.271C160.864 110.449 161.19 110.716 161.427 111.071C161.668 111.427 161.789 111.871 161.789 112.404V115.343C161.789 115.72 161.812 116.029 161.859 116.27C161.905 116.507 161.973 116.714 162.062 116.892V117H160.215C160.126 116.814 160.058 116.581 160.012 116.302C159.969 116.018 159.948 115.735 159.948 115.451ZM160.189 112.817L160.202 113.852H159.18C158.939 113.852 158.729 113.879 158.552 113.934C158.374 113.989 158.228 114.067 158.114 114.169C158 114.266 157.915 114.381 157.86 114.512C157.809 114.643 157.784 114.787 157.784 114.943C157.784 115.1 157.82 115.242 157.892 115.369C157.964 115.491 158.067 115.589 158.203 115.661C158.338 115.728 158.497 115.762 158.679 115.762C158.954 115.762 159.193 115.707 159.396 115.597C159.599 115.487 159.756 115.352 159.866 115.191C159.98 115.03 160.039 114.878 160.043 114.734L160.526 115.508C160.458 115.682 160.365 115.862 160.247 116.048C160.132 116.234 159.986 116.41 159.809 116.575C159.631 116.736 159.417 116.869 159.167 116.975C158.918 117.076 158.622 117.127 158.279 117.127C157.843 117.127 157.447 117.04 157.092 116.867C156.741 116.689 156.461 116.446 156.254 116.137C156.051 115.824 155.949 115.468 155.949 115.07C155.949 114.711 156.017 114.391 156.152 114.112C156.288 113.833 156.487 113.598 156.749 113.407C157.016 113.213 157.348 113.067 157.746 112.969C158.143 112.868 158.605 112.817 159.129 112.817H160.189ZM164.988 111.598V117H163.16V110.132H164.874L164.988 111.598ZM164.722 113.325H164.227C164.227 112.817 164.292 112.36 164.423 111.954C164.555 111.543 164.739 111.194 164.976 110.906C165.213 110.614 165.494 110.392 165.82 110.24C166.15 110.083 166.518 110.005 166.924 110.005C167.246 110.005 167.54 110.051 167.807 110.145C168.073 110.238 168.302 110.386 168.492 110.589C168.687 110.792 168.835 111.061 168.937 111.395C169.042 111.729 169.095 112.138 169.095 112.62V117H167.254V112.614C167.254 112.309 167.212 112.072 167.127 111.903C167.043 111.734 166.918 111.615 166.753 111.547C166.592 111.475 166.393 111.439 166.156 111.439C165.911 111.439 165.697 111.488 165.515 111.585C165.337 111.683 165.189 111.818 165.071 111.992C164.957 112.161 164.87 112.36 164.811 112.588C164.751 112.817 164.722 113.062 164.722 113.325Z" fill="white"/>
<defs>
<clipPath id="clip0_183_2">
<rect width="139" height="96" fill="white" transform="translate(17)"/>
</clipPath>
</defs>
</svg>
