<svg width="87" height="87" viewBox="0 0 87 87" fill="none" xmlns="http://www.w3.org/2000/svg">
<circle cx="64" cy="21" r="11" fill="white" stroke="#125DB1" stroke-width="2"/>
<path d="M21.6557 63.0003L21.6443 63H21.633C16.0402 63 12.1024 62.6156 9.3349 61.9284C6.57072 61.2419 5.07616 60.2789 4.23409 59.1989C3.39197 58.1187 3.08211 56.7698 3.01503 55.0331C2.98152 54.1654 3.00916 53.2347 3.0473 52.2191C3.05201 52.0936 3.05689 51.9668 3.06181 51.8388C3.09627 50.9421 3.13297 49.9872 3.13297 49C3.13297 40.8916 11.2216 34 21.633 34C32.0443 34 40.133 40.8916 40.133 49C40.133 49.9096 40.1569 50.757 40.1795 51.5614C40.2149 52.8159 40.2473 53.9657 40.1816 55.0833C40.0773 56.856 39.7262 58.2625 38.8463 59.3839C37.9699 60.5007 36.4553 61.4769 33.7257 62.1379C30.9886 62.8008 27.119 63.1244 21.6557 63.0003Z" fill="white" stroke="#125DB1" stroke-width="2"/>
<path d="M65.6557 63.0003L65.6443 63H65.633C60.0402 63 56.1024 62.6156 53.3349 61.9284C50.5707 61.2419 49.0762 60.2789 48.2341 59.1989C47.392 58.1187 47.0821 56.7698 47.015 55.0331C46.9815 54.1654 47.0092 53.2347 47.0473 52.2191C47.052 52.0936 47.0569 51.9668 47.0618 51.8388C47.0963 50.9421 47.133 49.9872 47.133 49C47.133 40.8916 55.2216 34 65.633 34C76.0443 34 84.133 40.8916 84.133 49C84.133 49.9096 84.1569 50.757 84.1795 51.5614C84.2149 52.8159 84.2473 53.9657 84.1816 55.0833C84.0773 56.856 83.7262 58.2625 82.8463 59.3839C81.9699 60.5007 80.4553 61.4769 77.7257 62.1379C74.9886 62.8008 71.119 63.1244 65.6557 63.0003Z" fill="white" stroke="#125DB1" stroke-width="2"/>
<circle cx="22" cy="21" r="11" fill="white" stroke="#125DB1" stroke-width="2"/>
<path d="M42.5228 75.0003L42.5114 75H42.5C36.9072 75 32.9695 74.6156 30.202 73.9284C27.4378 73.2419 25.9432 72.2789 25.1012 71.1989C24.259 70.1187 23.9492 68.7698 23.8821 67.0331C23.8486 66.1654 23.8762 65.2347 23.9144 64.2191C23.9191 64.0936 23.924 63.9668 23.9289 63.8388C23.9633 62.9421 24 61.9872 24 61C24 52.8916 32.0887 46 42.5 46C52.9114 46 61 52.8916 61 61C61 61.9096 61.0239 62.757 61.0466 63.5614C61.082 64.8159 61.1144 65.9657 61.0486 67.0833C60.9444 68.856 60.5933 70.2625 59.7133 71.3839C58.8369 72.5007 57.3224 73.4769 54.5928 74.1379C51.8557 74.8008 47.9861 75.1244 42.5228 75.0003Z" fill="white" stroke="#125DB1" stroke-width="2"/>
<circle cx="43" cy="31" r="13" fill="white" stroke="#125DB1" stroke-width="2"/>
</svg>
