<svg width="230" height="204" viewBox="0 0 230 204" fill="none" xmlns="http://www.w3.org/2000/svg">
<g clip-path="url(#clip0_107_2)">
<path d="M197.661 168.558C193.78 179.904 188.79 191.225 182.396 202C182.254 202.243 182.11 202.481 181.966 202.723L166.137 197.724C166.228 197.496 166.328 197.24 166.435 196.96C172.819 180.48 211.338 80.0698 209.609 60.2725C209.795 61.893 215.821 115.522 197.661 168.558Z" fill="#E6E6E6"/>
<path d="M185.45 202.965C185.235 203.184 185.014 203.402 184.792 203.615L172.917 199.865C173.078 199.672 173.265 199.443 173.48 199.185C176.996 194.898 187.452 182.063 197.661 168.558C208.633 154.046 219.323 138.762 220.821 132.482C220.52 133.91 211.15 177.383 185.45 202.965Z" fill="#E6E6E6"/>
<path d="M191.385 35.7772C191.381 35.7772 191.377 35.7785 191.372 35.7786V10.3716C191.372 7.62084 190.277 4.9828 188.329 3.03776C186.38 1.09271 183.737 0 180.981 0H101.291C98.5349 0 95.892 1.09271 93.9434 3.03776C91.9947 4.9828 90.9 7.62084 90.9 10.3716V23.3965C90.68 23.4012 90.4706 23.4917 90.3166 23.6486C90.1626 23.8055 90.0762 24.0163 90.076 24.236V30.6874C90.0762 30.907 90.1625 31.1179 90.3165 31.2748C90.4705 31.4316 90.68 31.5221 90.9 31.5267V38.2852H90.8577C90.747 38.2852 90.6375 38.3069 90.5352 38.3492C90.4329 38.3915 90.34 38.4535 90.2617 38.5316C90.1835 38.6097 90.1214 38.7025 90.079 38.8045C90.0367 38.9066 90.0149 39.016 90.0149 39.1265V51.6019C90.0149 51.7124 90.0367 51.8218 90.079 51.9239C90.1214 52.0259 90.1835 52.1187 90.2617 52.1968C90.34 52.2749 90.4329 52.3369 90.5352 52.3792C90.6375 52.4215 90.747 52.4432 90.8577 52.4432H90.9V57.398H90.8868C90.7762 57.398 90.6666 57.4198 90.5643 57.4621C90.462 57.5044 90.3691 57.5663 90.2909 57.6445C90.2126 57.7226 90.1505 57.8153 90.1081 57.9174C90.0658 58.0195 90.044 58.1289 90.044 58.2393V70.8368C90.044 70.9473 90.0658 71.0567 90.1081 71.1588C90.1505 71.2608 90.2126 71.3536 90.2909 71.4317C90.3691 71.5098 90.462 71.5718 90.5643 71.6141C90.6666 71.6563 90.7762 71.6781 90.8868 71.6781H90.9V193.448C90.9 196.198 91.9947 198.836 93.9434 200.781C95.892 202.727 98.5349 203.819 101.291 203.819H180.981C183.737 203.819 186.38 202.727 188.329 200.781C190.277 198.836 191.372 196.198 191.372 193.448V60.4829C191.377 60.4829 191.381 60.4841 191.385 60.4841C191.582 60.4841 191.777 60.4454 191.96 60.3701C192.142 60.2949 192.307 60.1845 192.446 60.0454C192.586 59.9063 192.696 59.7412 192.772 59.5594C192.847 59.3777 192.886 59.1829 192.886 58.9861V37.2753C192.886 36.878 192.728 36.4969 192.447 36.216C192.165 35.935 191.783 35.7772 191.385 35.7772Z" fill="#3F3D56"/>
<path d="M185.168 13.2747V190.542C185.167 192.654 184.326 194.679 182.83 196.172C181.333 197.665 179.304 198.504 177.188 198.504H105.084C102.968 198.504 100.939 197.665 99.4425 196.172C97.946 194.679 97.1049 192.654 97.1041 190.542V13.2747C97.1041 11.1622 97.9449 9.13613 99.4414 7.64233C100.938 6.14853 102.968 5.30933 105.084 5.30933H115.874V6.70712C115.875 8.4464 116.567 10.1142 117.799 11.3441C119.031 12.574 120.702 13.2652 122.445 13.266H159.128C160.869 13.2621 162.536 12.5694 163.765 11.3398C164.995 10.1102 165.685 8.44413 165.685 6.70712V5.32385H177.188C179.302 5.32385 181.329 6.16107 182.825 7.65172C184.322 9.14238 185.164 11.1647 185.168 13.2747Z" fill="white"/>
<path d="M68.2463 99.4676C67.8199 99.3028 67.3625 99.2333 66.9063 99.264C66.4501 99.2948 66.0062 99.425 65.6059 99.6455C65.2055 99.866 64.8585 100.171 64.5892 100.54C64.3199 100.909 64.135 101.332 64.0473 101.78L38.353 115.726L42.8707 120.801L66.7325 105.515C67.4961 105.613 68.2689 105.427 68.9044 104.993C69.5399 104.559 69.994 103.908 70.1806 103.163C70.3672 102.417 70.2734 101.629 69.9168 100.948C69.5603 100.267 68.9659 99.7404 68.2463 99.4676H68.2463Z" fill="#FFB8B8"/>
<path d="M61.6933 199.803L64.895 197.736L58.4308 184.426L53.7053 187.477L61.6933 199.803Z" fill="#FFB8B8"/>
<path d="M72.9927 196.717L62.9301 203.214L60.4154 199.333L66.7355 195.253C67.728 194.612 68.935 194.391 70.0908 194.638C71.2466 194.886 72.2566 195.581 72.8986 196.572L72.9927 196.717L72.9927 196.717Z" fill="#2F2E41"/>
<path d="M25.769 200.284H29.5821L31.3968 185.604H25.769V200.284Z" fill="#FFB8B8"/>
<path d="M36.936 203.818H24.9519V199.197H32.4789C33.0643 199.197 33.6438 199.312 34.1846 199.535C34.7254 199.759 35.2167 200.087 35.6306 200.5C36.0445 200.913 36.3728 201.403 36.5968 201.943C36.8207 202.483 36.936 203.061 36.936 203.646V203.818Z" fill="#2F2E41"/>
<path d="M113.253 28.7673H105.392C105.199 28.7673 105.014 28.6907 104.878 28.5545C104.741 28.4182 104.665 28.2335 104.665 28.0408C104.665 27.8481 104.741 27.6633 104.878 27.5271C105.014 27.3908 105.199 27.3143 105.392 27.3143H113.253C113.446 27.3143 113.631 27.3908 113.768 27.5271C113.904 27.6633 113.981 27.8481 113.981 28.0408C113.981 28.2335 113.904 28.4182 113.768 28.5545C113.631 28.6907 113.446 28.7673 113.253 28.7673Z" fill="#3F3D56"/>
<path d="M113.253 30.8015H105.392C105.199 30.8015 105.014 30.7249 104.878 30.5887C104.741 30.4524 104.665 30.2676 104.665 30.075C104.665 29.8823 104.741 29.6975 104.878 29.5612C105.014 29.425 105.199 29.3484 105.392 29.3484H113.253C113.446 29.3484 113.631 29.425 113.768 29.5612C113.904 29.6975 113.981 29.8823 113.981 30.075C113.981 30.2676 113.904 30.4524 113.768 30.5887C113.631 30.7249 113.446 30.8015 113.253 30.8015Z" fill="#3F3D56"/>
<path d="M113.253 32.8357H105.392C105.199 32.8357 105.014 32.7592 104.878 32.6229C104.741 32.4867 104.665 32.3019 104.665 32.1092C104.665 31.9165 104.741 31.7317 104.878 31.5955C105.014 31.4592 105.199 31.3827 105.392 31.3827H113.253C113.446 31.3827 113.631 31.4592 113.768 31.5955C113.904 31.7317 113.981 31.9165 113.981 32.1092C113.981 32.3019 113.904 32.4867 113.768 32.6229C113.631 32.7592 113.446 32.8357 113.253 32.8357Z" fill="#3F3D56"/>
<path d="M174.186 30.816H173.921L173.819 30.7317C174.154 30.3336 174.337 29.8304 174.338 29.3107C174.335 28.8831 174.206 28.4658 173.966 28.1115C173.726 27.7572 173.386 27.4819 172.99 27.3204C172.593 27.1589 172.157 27.1184 171.737 27.2041C171.318 27.2898 170.933 27.4978 170.632 27.8018C170.33 28.1058 170.126 28.4921 170.045 28.912C169.963 29.3318 170.009 29.7663 170.175 30.1605C170.341 30.5546 170.62 30.8908 170.978 31.1265C171.335 31.3621 171.755 31.4867 172.183 31.4844C172.702 31.4807 173.204 31.298 173.604 30.9671L173.703 31.0514V31.3188L175.374 32.9897L175.875 32.4899L174.186 30.816ZM172.183 30.816C171.885 30.8172 171.593 30.73 171.344 30.5656C171.096 30.4011 170.901 30.1668 170.786 29.8921C170.671 29.6175 170.64 29.315 170.697 29.0228C170.754 28.7305 170.897 28.4618 171.107 28.2504C171.317 28.0391 171.585 27.8947 171.877 27.8355C172.17 27.7763 172.473 27.8049 172.749 27.9178C173.025 28.0306 173.261 28.2227 173.428 28.4696C173.595 28.7165 173.684 29.0072 173.685 29.3049L173.685 29.3107C173.686 29.5072 173.649 29.7021 173.575 29.8841C173.5 30.0661 173.391 30.2317 173.252 30.3715C173.114 30.5113 172.949 30.6225 172.768 30.6987C172.586 30.775 172.392 30.8149 172.195 30.816C172.191 30.816 172.187 30.816 172.183 30.816H172.183Z" fill="#3F3D56"/>
<path d="M129.267 55.5026H115.146C114.296 55.5026 113.482 55.1658 112.881 54.5664C112.28 53.9669 111.943 53.1538 111.943 52.306C111.943 51.4582 112.28 50.6451 112.881 50.0456C113.482 49.4462 114.296 49.1094 115.146 49.1094H129.267C130.117 49.1094 130.931 49.4462 131.532 50.0456C132.132 50.6451 132.47 51.4582 132.47 52.306C132.47 53.1538 132.132 53.9669 131.532 54.5664C130.931 55.1658 130.117 55.5026 129.267 55.5026Z" fill="#125DB1"/>
<path d="M172.5 62.4771H113.69C113.227 62.4771 112.782 62.2934 112.455 61.9664C112.127 61.6394 111.943 61.1959 111.943 60.7335C111.943 60.271 112.127 59.8275 112.455 59.5006C112.782 59.1736 113.227 58.9899 113.69 58.9899H172.5C172.963 58.9899 173.408 59.1736 173.735 59.5006C174.063 59.8275 174.247 60.271 174.247 60.7335C174.247 61.1959 174.063 61.6394 173.735 61.9664C173.408 62.2934 172.963 62.4771 172.5 62.4771Z" fill="#E6E6E6"/>
<path d="M135.292 69.4515H113.69C113.227 69.4515 112.782 69.2678 112.455 68.9408C112.127 68.6138 111.943 68.1703 111.943 67.7079C111.943 67.2455 112.127 66.802 112.455 66.475C112.782 66.148 113.227 65.9643 113.69 65.9643H135.292C135.756 65.9643 136.2 66.148 136.528 66.475C136.855 66.802 137.039 67.2455 137.039 67.7079C137.039 68.1703 136.855 68.6138 136.528 68.9408C136.2 69.2678 135.756 69.4515 135.292 69.4515Z" fill="#E6E6E6"/>
<path d="M129.267 132.803H115.146C114.296 132.803 113.482 132.466 112.881 131.866C112.28 131.267 111.943 130.454 111.943 129.606C111.943 128.758 112.28 127.945 112.881 127.346C113.482 126.746 114.296 126.409 115.146 126.409H129.267C130.117 126.409 130.931 126.746 131.532 127.346C132.132 127.945 132.47 128.758 132.47 129.606C132.47 130.454 132.132 131.267 131.532 131.866C130.931 132.466 130.117 132.803 129.267 132.803Z" fill="#125DB1"/>
<path d="M172.5 139.777H113.69C113.227 139.777 112.782 139.593 112.455 139.266C112.127 138.939 111.943 138.496 111.943 138.033C111.943 137.571 112.127 137.128 112.455 136.801C112.782 136.474 113.227 136.29 113.69 136.29H172.5C172.963 136.29 173.408 136.474 173.735 136.801C174.063 137.128 174.247 137.571 174.247 138.033C174.247 138.496 174.063 138.939 173.735 139.266C173.408 139.593 172.963 139.777 172.5 139.777Z" fill="#E6E6E6"/>
<path d="M135.292 146.752H113.69C113.227 146.752 112.782 146.568 112.455 146.241C112.127 145.914 111.943 145.47 111.943 145.008C111.943 144.545 112.127 144.102 112.455 143.775C112.782 143.448 113.227 143.264 113.69 143.264H135.292C135.756 143.264 136.2 143.448 136.528 143.775C136.855 144.102 137.039 144.545 137.039 145.008C137.039 145.47 136.855 145.914 136.528 146.241C136.2 146.568 135.756 146.752 135.292 146.752Z" fill="#E6E6E6"/>
<path d="M129.267 168.547H115.146C114.296 168.547 113.482 168.21 112.881 167.61C112.28 167.011 111.943 166.198 111.943 165.35C111.943 164.502 112.28 163.689 112.881 163.09C113.482 162.49 114.296 162.153 115.146 162.153H129.267C130.117 162.153 130.931 162.49 131.532 163.09C132.132 163.689 132.47 164.502 132.47 165.35C132.47 166.198 132.132 167.011 131.532 167.61C130.931 168.21 130.117 168.547 129.267 168.547Z" fill="#125DB1"/>
<path d="M172.5 175.521H113.69C113.227 175.521 112.782 175.337 112.455 175.01C112.127 174.683 111.943 174.24 111.943 173.777C111.943 173.315 112.127 172.872 112.455 172.545C112.782 172.218 113.227 172.034 113.69 172.034H172.5C172.963 172.034 173.408 172.218 173.735 172.545C174.063 172.872 174.247 173.315 174.247 173.777C174.247 174.24 174.063 174.683 173.735 175.01C173.408 175.337 172.963 175.521 172.5 175.521Z" fill="#E6E6E6"/>
<path d="M135.292 182.496H113.69C113.227 182.496 112.782 182.312 112.455 181.985C112.127 181.658 111.943 181.214 111.943 180.752C111.943 180.289 112.127 179.846 112.455 179.519C112.782 179.192 113.227 179.008 113.69 179.008H135.292C135.756 179.008 136.2 179.192 136.528 179.519C136.855 179.846 137.039 180.289 137.039 180.752C137.039 181.214 136.855 181.658 136.528 181.985C136.2 182.312 135.756 182.496 135.292 182.496Z" fill="#E6E6E6"/>
<path d="M180.797 114.64H68.4177C67.7616 114.639 67.1326 114.379 66.6686 113.916C66.2047 113.453 65.9437 112.825 65.943 112.17V81.6568C65.9437 81.0019 66.2047 80.374 66.6686 79.9109C67.1326 79.4479 67.7616 79.1874 68.4177 79.1866H180.797C181.454 79.1874 182.083 79.4479 182.546 79.911C183.01 80.374 183.271 81.0019 183.272 81.6568V112.17C183.271 112.825 183.01 113.453 182.546 113.916C182.083 114.379 181.454 114.639 180.797 114.64Z" fill="#125DB1"/>
<path d="M28.0168 150.942C29.0911 158.466 23.4022 191.798 24.034 191.795L32.2034 191.751C32.4945 191.193 36.2444 173.208 37.4206 170.322C39.0626 166.318 40.7192 162.264 41.3655 157.986C41.974 153.97 41.6741 149.878 41.2782 145.836C41.2966 145.716 41.2861 145.593 41.2475 145.478C41.209 145.362 41.1435 145.258 41.0565 145.172C40.9694 145.087 40.8634 145.024 40.747 144.988C40.6307 144.952 40.5074 144.944 40.3873 144.964L29.4259 144.401C27.1667 144.284 26.631 143.79 26.9745 146.005C27.2132 147.658 27.778 149.268 28.0168 150.942Z" fill="#2F2E41"/>
<path d="M30.1712 132.649C27.944 135.845 25.609 139.524 26.3485 143.351C26.9104 146.258 29.1289 148.51 31.2222 150.617C39.5895 159.003 56.0884 196.008 56.0884 196.008C64.0506 190.923 55.8987 196.154 63.9783 190.778C63.2621 190.722 46.9903 132.338 45.6423 132.259C40.1893 131.899 35.4845 131.367 30.1712 132.649Z" fill="#2F2E41"/>
<path d="M38.9807 102.223C37.8494 101.216 29.8994 98.1104 29.8994 98.1104C29.7532 98.0911 29.6048 98.0955 29.4601 98.1236C29.0077 98.2376 28.8012 98.7988 28.8979 99.2525C28.9945 99.7063 28.2017 107.164 27.9974 110.555C27.6395 116.474 31.1314 129.881 31.1007 130.291C30.981 131.753 30.3397 133.124 29.2932 134.154C29.5652 134.491 46.8387 135.167 48.0137 135.566C48.2509 135.265 46.6762 113.999 46.6037 112.798C46.4829 110.974 40.4741 103.604 38.9807 102.223Z" fill="#E6E6E6"/>
<path d="M26.6604 148.367C27.0697 148.163 27.4294 147.873 27.7142 147.516C27.9989 147.159 28.2017 146.744 28.3084 146.3C28.415 145.856 28.4228 145.394 28.3313 144.947C28.2399 144.5 28.0513 144.078 27.7788 143.712L35.0669 103.452L28.2659 103.362L23.2047 143.174C22.6182 143.672 22.2349 144.367 22.1274 145.128C22.02 145.889 22.196 146.663 22.6219 147.303C23.0479 147.943 23.6943 148.404 24.4386 148.601C25.1829 148.797 25.9734 148.714 26.6604 148.367H26.6604Z" fill="#FFB8B8"/>
<path d="M26.6018 106.439C26.3182 106.46 26.0357 106.386 25.7983 106.23C25.3936 105.884 28.6951 100.592 29.3473 100.514C31.4697 100.27 33.6532 100.188 35.7116 100.761C37.7699 101.333 39.706 102.635 40.626 104.562C41.0103 105.364 38.2241 109.4 36.9577 108.808C35.4408 108.099 28.599 106.489 26.6018 106.439Z" fill="#E6E6E6"/>
<path d="M34.093 97.6767C38.312 97.6767 41.7322 94.2628 41.7322 90.0516C41.7322 85.8404 38.312 82.4266 34.093 82.4266C29.874 82.4266 26.4539 85.8404 26.4539 90.0516C26.4539 94.2628 29.874 97.6767 34.093 97.6767Z" fill="#FFB8B8"/>
<path d="M26.5898 102.659C27.6513 102.77 28.7238 102.613 29.7091 102.203C30.6943 101.794 31.5609 101.144 32.2295 100.313C32.8982 99.483 33.3475 98.4985 33.5364 97.4499C33.7253 96.4013 33.6478 95.3222 33.3109 94.3113C33.0069 93.399 32.4987 92.5628 32.2203 91.6424C31.9419 90.722 31.9343 89.6337 32.5518 88.8958C33.76 87.4521 36.0886 88.3602 37.9511 88.0732C39.9357 87.7673 41.4582 85.8669 41.617 83.8687C41.7759 81.8706 40.7324 79.8933 39.1792 78.6229C37.626 77.3524 35.6227 76.7269 33.6242 76.5309C31.0577 76.2792 28.4694 76.6913 26.1087 77.7275C23.7479 78.7637 21.6942 80.3892 20.1453 82.4474C18.5964 84.5055 17.6045 86.9271 17.265 89.4788C16.9255 92.0306 17.25 94.6266 18.2071 97.0169C19.042 99.1022 20.4058 101.044 22.3429 102.186C24.2801 103.328 26.8385 103.548 28.7692 102.395" fill="#2F2E41"/>
<path d="M108.384 93.1355H88.8624C87.6225 93.1355 86.6139 91.7016 86.6139 89.9389C86.6139 88.1763 87.6226 86.7423 88.8624 86.7423H108.384C109.624 86.7423 110.633 88.1763 110.633 89.9389C110.633 91.7016 109.624 93.1355 108.384 93.1355Z" fill="white"/>
<path d="M160.854 100.11H88.3607C87.8974 100.11 87.4531 99.9263 87.1255 99.5993C86.7979 99.2723 86.6139 98.8288 86.6139 98.3664C86.6139 97.9039 86.7979 97.4604 87.1255 97.1334C87.4531 96.8064 87.8974 96.6227 88.3607 96.6227H160.854C161.318 96.6227 161.762 96.8064 162.09 97.1334C162.417 97.4604 162.601 97.9039 162.601 98.3664C162.601 98.8288 162.417 99.2723 162.09 99.5993C161.762 99.9263 161.318 100.11 160.854 100.11Z" fill="#E6E6E6"/>
<path d="M123.647 107.084H88.3607C87.8974 107.084 87.4531 106.901 87.1255 106.574C86.7979 106.247 86.6139 105.803 86.6139 105.341C86.6139 104.878 86.7979 104.435 87.1255 104.108C87.4531 103.781 87.8974 103.597 88.3607 103.597H123.647C124.11 103.597 124.555 103.781 124.882 104.108C125.21 104.435 125.394 104.878 125.394 105.341C125.394 105.803 125.21 106.247 124.882 106.574C124.555 106.901 124.11 107.084 123.647 107.084Z" fill="#E6E6E6"/>
<path d="M230 203.419H0V204H230V203.419Z" fill="#3F3D56"/>
</g>
<defs>
<clipPath id="clip0_107_2">
<rect width="230" height="204" fill="white"/>
</clipPath>
</defs>
</svg>
