<svg width="258" height="218" viewBox="0 0 258 218" fill="none" xmlns="http://www.w3.org/2000/svg">
<g clip-path="url(#clip0_101_9)">
<path d="M210.121 105.215C210.121 108.278 209.992 111.31 209.735 114.311C209.532 116.654 209.256 118.976 208.906 121.276C208.534 123.712 208.078 126.119 207.538 128.496V128.499C207.185 130.064 206.797 131.615 206.375 133.154C205.15 137.628 203.626 142.015 201.814 146.284C201.42 147.213 201.014 148.135 200.594 149.052C199.007 152.521 197.229 155.9 195.27 159.173C189.775 168.365 182.916 176.666 174.928 183.792C174.064 184.562 173.187 185.319 172.299 186.063C153.439 201.841 129.635 210.467 105.06 210.43C47.0364 210.43 0 163.324 0 105.215C0 47.1055 47.0364 8.24608e-06 105.06 8.24608e-06C128.789 -0.0374612 151.825 8.00617 170.386 22.8102C171.257 23.5007 172.116 24.2067 172.964 24.9282C177.103 28.4435 180.965 32.2725 184.518 36.3813H184.52C201.066 55.4818 210.158 79.9288 210.121 105.215Z" fill="#F2F2F2"/>
<path d="M31.0136 123.389C21.0054 117.424 13.4516 106.275 14.4323 94.653C23.5822 103.423 35.5349 108.67 48.1755 109.464C53.0516 109.752 58.5049 109.565 62.0943 112.883C64.3277 114.947 65.3673 118.055 65.5378 121.094C65.7083 124.133 65.1004 127.156 64.4957 130.139L64.7038 130.87C53.0572 130.914 41.0219 129.355 31.0136 123.389Z" fill="#E6E6E6"/>
<path d="M14.6763 94.6406C18.6864 103.42 25.3567 110.711 33.7399 115.478C35.5421 116.488 37.4581 117.356 39.4942 117.758C41.4818 118.135 43.5341 117.972 45.4376 117.287C47.2253 116.683 48.9841 115.858 50.8872 115.7C52.8932 115.533 54.7503 116.308 56.2094 117.666C57.9947 119.327 59.0775 121.531 60.0616 123.724C61.1543 126.158 62.2508 128.704 64.3458 130.454C64.5996 130.666 64.2561 131.048 64.0027 130.837C60.3577 127.791 59.7628 122.69 56.8492 119.103C55.4897 117.429 53.6182 116.156 51.395 116.189C49.4509 116.219 47.6365 117.068 45.8317 117.695C43.9366 118.353 42.0381 118.662 40.0374 118.373C37.9908 118.076 36.0369 117.282 34.2169 116.322C30.1058 114.115 26.3668 111.274 23.1368 107.904C19.4292 104.078 16.4024 99.6454 14.1874 94.7973C14.0504 94.4972 14.5403 94.3424 14.6763 94.6406H14.6763Z" fill="white"/>
<path d="M30.9504 114.102C29.9609 115.402 28.5421 116.307 26.9475 116.657C25.353 117.006 23.6864 116.776 22.2454 116.008C21.9544 115.852 22.1833 115.391 22.4748 115.548C23.8153 116.265 25.3677 116.479 26.8519 116.151C28.3361 115.823 29.6543 114.974 30.5686 113.758C30.7676 113.494 31.1482 113.839 30.9504 114.102L30.9504 114.102Z" fill="white"/>
<path d="M44.5715 117.712C44.155 114.397 42.5061 111.36 39.9535 109.209C39.7004 108.996 40.0438 108.613 40.2965 108.826C42.9487 111.07 44.6582 114.234 45.084 117.685C45.1244 118.014 44.6116 118.039 44.5715 117.712V117.712Z" fill="white"/>
<path d="M20.0657 103.837C20.5532 103.414 20.9282 102.876 21.1569 102.272C21.3856 101.668 21.461 101.016 21.3761 100.376C21.3316 100.048 21.8445 100.022 21.8887 100.349C21.9791 101.057 21.8951 101.776 21.6439 102.444C21.3926 103.112 20.9819 103.708 20.4475 104.181C20.4009 104.229 20.3374 104.259 20.2701 104.262C20.2028 104.266 20.1366 104.244 20.0851 104.2C20.0347 104.154 20.0045 104.091 20.0009 104.023C19.9972 103.955 20.0205 103.888 20.0657 103.837V103.837Z" fill="white"/>
<path d="M46.8282 72.1366C46.8618 72.3408 46.8954 72.545 46.9329 72.7511C47.3989 75.494 48.0867 78.1945 48.9895 80.8259C49.056 81.0305 49.1266 81.2368 49.1989 81.439C51.4413 87.7554 54.8351 93.6 59.208 98.6756C60.9499 100.694 62.8426 102.576 64.8696 104.307C67.6693 106.697 70.8947 109.065 72.6896 112.15C72.8805 112.47 73.0514 112.801 73.2014 113.142L65.5778 130.559C65.5406 130.59 65.5074 130.622 65.4701 130.653L65.1975 131.363C65.0867 131.281 64.9736 131.193 64.8628 131.112C64.7983 131.064 64.7356 131.013 64.6711 130.966C64.6287 130.933 64.5863 130.9 64.5462 130.873C64.532 130.862 64.5179 130.851 64.5077 130.842C64.4676 130.815 64.4331 130.786 64.3969 130.76C63.7632 130.274 63.1319 129.782 62.5028 129.284C62.4988 129.283 62.4988 129.283 62.4965 129.277C57.7129 125.476 53.2042 121.242 49.4804 116.457C49.3685 116.313 49.2524 116.167 49.1439 116.015C47.4774 113.849 45.9904 111.55 44.6979 109.142C43.9944 107.82 43.3581 106.464 42.7915 105.079C41.3344 101.495 40.4491 97.7049 40.1682 93.8462C39.6092 86.1538 41.5131 78.3681 46.4469 72.5754C46.5732 72.4273 46.6979 72.2829 46.8282 72.1366Z" fill="#E6E6E6"/>
<path d="M47.0317 72.2726C44.9554 81.7004 45.8982 91.5437 49.726 100.404C50.5576 102.298 51.5657 104.146 52.9494 105.695C54.3098 107.194 56.0462 108.302 57.9784 108.902C59.7688 109.498 61.669 109.899 63.2836 110.921C64.9854 111.997 66.0023 113.736 66.3512 115.7C66.778 118.102 66.3174 120.515 65.7851 122.859C65.1941 125.462 64.539 128.155 65.1593 130.816C65.2345 131.139 64.7305 131.237 64.6555 130.915C63.5763 126.285 66.1677 121.854 65.9979 117.233C65.9186 115.077 65.1901 112.931 63.3948 111.618C61.8248 110.469 59.8656 110.053 58.0477 109.465C56.1387 108.848 54.437 107.951 53.0137 106.513C51.5578 105.042 50.4754 103.23 49.5991 101.366C47.6435 97.1252 46.3658 92.6027 45.813 87.9642C45.1528 82.6739 45.401 77.3094 46.5471 72.103C46.6182 71.7807 47.1023 71.9525 47.0317 72.2726Z" fill="white"/>
<path d="M48.3259 97.6239C46.7542 98.0653 45.0771 97.9328 43.594 97.2501C42.1109 96.5674 40.9185 95.379 40.2295 93.8971C40.0912 93.5968 40.5507 93.3673 40.6892 93.668C41.3282 95.0492 42.4391 96.1561 43.8215 96.789C45.2038 97.4218 46.7665 97.539 48.2276 97.1193C48.5452 97.0285 48.6416 97.5336 48.3258 97.6239H48.3259Z" fill="white"/>
<path d="M57.031 108.719C58.6917 105.821 59.2005 102.403 58.4561 99.1452C58.3821 98.8226 58.886 98.7245 58.96 99.0468C59.7283 102.438 59.1915 105.994 57.4568 109.007C57.2912 109.294 56.8664 109.005 57.031 108.719Z" fill="white"/>
<path d="M45.8062 82.865C46.4498 82.8212 47.0725 82.6179 47.6183 82.2735C48.1641 81.929 48.6159 81.4542 48.9332 80.8917C49.095 80.6028 49.5197 80.8918 49.3589 81.1789C49.0055 81.7988 48.5058 82.3225 47.9037 82.7044C47.3015 83.0863 46.6151 83.3147 45.9045 83.3696C45.8379 83.3804 45.7697 83.3654 45.7138 83.3277C45.6579 83.29 45.6184 83.2324 45.6034 83.1666C45.5907 83.0997 45.6049 83.0305 45.6429 82.974C45.6808 82.9176 45.7395 82.8784 45.8062 82.8651V82.865Z" fill="white"/>
<path d="M72.7762 24.3857L85.6351 175.137L59.9172 177.073V26.3037C62.9818 24.2729 67.3808 23.9552 72.7762 24.3857Z" fill="#CCCCCC"/>
<path d="M136.25 24.3857L123.391 175.137L149.109 177.073V26.3037C146.044 24.2729 141.645 23.9552 136.25 24.3857Z" fill="#CCCCCC"/>
<path d="M145.258 183.304H63.4943C62.1832 183.302 60.9263 182.78 59.9992 181.852C59.0721 180.923 58.5507 179.664 58.5492 178.351V28.5162C58.5507 27.2032 59.0722 25.9444 59.9992 25.0159C60.9263 24.0875 62.1833 23.5652 63.4943 23.5637H145.258C146.569 23.5652 147.826 24.0875 148.753 25.0159C149.68 25.9444 150.202 27.2032 150.203 28.5162V178.351C150.202 179.664 149.68 180.923 148.753 181.852C147.826 182.78 146.569 183.302 145.258 183.304ZM63.4943 25.2077C62.6185 25.2087 61.7788 25.5576 61.1594 26.1778C60.5401 26.7981 60.1917 27.639 60.1908 28.5162V178.351C60.1917 179.229 60.5401 180.07 61.1594 180.69C61.7787 181.31 62.6185 181.659 63.4943 181.66H145.258C146.134 181.659 146.974 181.31 147.593 180.69C148.212 180.07 148.561 179.229 148.562 178.351V28.5162C148.561 27.639 148.212 26.7981 147.593 26.1778C146.974 25.5576 146.134 25.2087 145.258 25.2077L63.4943 25.2077Z" fill="#CCCCCC"/>
<path d="M149.383 48.4975H59.37V50.1414H149.383V48.4975Z" fill="#CCCCCC"/>
<path d="M149.383 75.8971H59.37V77.5411H149.383V75.8971Z" fill="#CCCCCC"/>
<path d="M88.58 24.3857H86.9385V99.1869H88.58V24.3857Z" fill="#CCCCCC"/>
<path d="M121.814 24.3857H120.173V99.1869H121.814V24.3857Z" fill="#CCCCCC"/>
<path d="M159.642 187.825H51.8462C49.887 187.825 48.0081 187.045 46.6227 185.658C45.2374 184.271 44.4591 182.389 44.4591 180.427C44.4591 178.465 45.2374 176.583 46.6227 175.196C48.0081 173.808 49.887 173.029 51.8462 173.029H159.642C161.602 173.029 163.481 173.808 164.866 175.196C166.251 176.583 167.029 178.465 167.029 180.427C167.029 182.389 166.251 184.271 164.866 185.658C163.481 187.045 161.602 187.825 159.642 187.825Z" fill="#CCCCCC"/>
<path d="M149.383 95.3509H59.9172V100.831H149.383V95.3509Z" fill="#CCCCCC"/>
<path d="M88.8347 112.791L88.7212 112.736C82.6224 109.786 74.6357 109.788 62.8246 112.746L62.6984 112.777L62.6606 112.653C61.4112 108.55 59.9958 103.903 62.6548 101.617C62.692 94.9076 68.5683 89.4599 75.7861 89.4599C83.0024 89.4599 88.8779 94.9048 88.9173 101.612C92.8728 104.641 90.9877 109.116 88.8986 112.682L88.8347 112.791Z" fill="#2F2E41"/>
<path d="M126.32 98.4252C126.211 98.9689 125.984 99.4819 125.655 99.9281C125.327 100.374 124.904 100.743 124.418 101.008C123.931 101.273 123.393 101.428 122.84 101.462C122.287 101.496 121.734 101.409 121.219 101.205L99.6656 122.896L97.7427 116.161L119.149 96.0183C119.547 95.1742 120.241 94.5057 121.099 94.1396C121.956 93.7735 122.918 93.7351 123.802 94.0318C124.686 94.3285 125.431 94.9396 125.895 95.7493C126.359 96.5591 126.51 97.5112 126.32 98.4252L126.32 98.4252Z" fill="#FFB6B6"/>
<path d="M73.0519 119.307C73.0519 119.307 71.0965 123.745 75.9215 126.482C80.7465 129.219 97.6101 125.437 100.346 124.909C103.083 124.382 113.302 109.065 113.302 109.065L111.857 101.553L98.3035 113.337L73.0519 119.307Z" fill="#125DB1"/>
<path d="M69.4931 143.848L69.7667 149.054C69.7667 149.054 68.9592 153.666 69.6233 154.661C70.2824 155.651 88.2689 155.776 88.2689 155.776C88.2689 155.776 89.4573 149.36 90.481 143.744L69.4931 143.848Z" fill="#FFB6B6"/>
<path d="M121.206 212.682L124.966 211.922L123.89 196.711L118.341 197.833L121.206 212.682Z" fill="#FFB6B6"/>
<path d="M126.592 192.888L130.088 191.314L125.553 176.76L120.394 179.084L126.592 192.888Z" fill="#FFB6B6"/>
<path d="M129.638 184.687L123.055 188.42L106.822 162.297C95.4269 169.985 84.2834 173.667 73.0498 175.632C69.2518 176.309 65.3794 175.966 64.6503 172.095C64.6162 171.914 64.589 171.732 64.5688 171.549C64.1202 167.32 69.3726 161.9 70.0403 156.726L84.415 155.862L86.1877 158.138L102.812 147.903C106.155 145.844 110.552 146.958 112.633 150.389C112.743 150.571 112.845 150.756 112.939 150.946L129.638 184.687Z" fill="#2F2E41"/>
<path d="M125.609 202.261L118.077 202.962L104.421 174.992C90.8796 177.324 78.1043 178.072 67.0541 175.25C63.3128 174.308 61.0259 170.439 61.9461 166.609C61.9891 166.43 62.0388 166.253 62.0953 166.077C63.4178 162.037 66.8796 159.177 69.607 154.733L89.5293 155.036L87.3042 162.725L106.657 160.217C110.549 159.713 114.104 162.534 114.596 166.518C114.622 166.729 114.639 166.94 114.647 167.152L125.609 202.261Z" fill="#2F2E41"/>
<path d="M77.272 108.814C81.7397 108.814 85.3615 105.187 85.3615 100.713C85.3615 96.2387 81.7397 92.6115 77.272 92.6115C72.8042 92.6115 69.1824 96.2387 69.1824 100.713C69.1824 105.187 72.8042 108.814 77.272 108.814Z" fill="#FFB6B6"/>
<path d="M72.5294 111.739L79.9468 112.613C80.2596 112.65 80.5531 112.784 80.7865 112.995C81.0198 113.207 81.1814 113.487 81.2486 113.795L82.4282 119.2L89.7815 127.873C89.7815 127.873 92.422 132.831 91.4318 138.45C90.4417 144.07 90.0065 148.245 90.0065 148.245C90.0065 148.245 70.2814 155.652 69.6213 154.66C68.9612 153.668 68.7469 149.164 68.7469 149.164L66.1064 119.745C66.1064 119.745 69.077 114.787 70.7273 114.787C71.7924 114.751 71.6558 112.35 72.5294 111.739Z" fill="#125DB1"/>
<path d="M90.2071 150.054C91.2473 150.054 92.0905 149.04 92.0905 147.79C92.0905 146.54 91.2473 145.527 90.2071 145.527C89.1669 145.527 88.3237 146.54 88.3237 147.79C88.3237 149.04 89.1669 150.054 90.2071 150.054Z" fill="#125DB1"/>
<path d="M119.34 208.766L125.073 205.889L126.153 208.413L133.403 209.88C133.761 209.953 134.086 210.138 134.332 210.409C134.577 210.68 134.73 211.022 134.768 211.386C134.805 211.75 134.725 212.116 134.54 212.432C134.355 212.747 134.074 212.995 133.738 213.139L126.734 216.146L124.458 214.167L125.055 216.866L122.414 218L119.34 208.766Z" fill="#2F2E41"/>
<path d="M124.952 191.677L130.633 188.699L131.758 191.204L139.032 192.544C139.391 192.61 139.72 192.789 139.97 193.056C140.22 193.322 140.379 193.662 140.423 194.025C140.467 194.388 140.393 194.756 140.214 195.074C140.034 195.393 139.758 195.646 139.425 195.796L132.474 198.925L130.164 196.987L130.808 199.676L128.188 200.856L124.952 191.677Z" fill="#2F2E41"/>
<path d="M72.65 98.1718C70.5128 98.1753 68.4269 97.5162 66.6786 96.2851L66.6202 96.2442V96.1729C66.6226 94.1025 67.4449 92.1177 68.9067 90.6537C70.3685 89.1898 72.3504 88.3663 74.4177 88.364H77.7008C79.7681 88.3663 81.7501 89.1898 83.2119 90.6537C84.6737 92.1177 85.4959 94.1025 85.4983 96.1729C85.4961 96.6467 85.3093 97.101 84.9776 97.439C84.6459 97.7769 84.1956 97.9718 83.7226 97.9822L72.8345 98.1702C72.7731 98.1713 72.7113 98.1718 72.65 98.1718Z" fill="#2F2E41"/>
<path d="M86.0454 94.6731C87.0923 94.0678 87.2672 92.4085 86.4362 90.967C85.6051 89.5254 84.0828 88.8475 83.0359 89.4528C81.989 90.0581 81.8141 91.7174 82.6452 93.159C83.4762 94.6005 84.9986 95.2784 86.0454 94.6731Z" fill="#2F2E41"/>
<path d="M69.6728 93.0649C70.8481 91.8879 71.1079 90.2398 70.2532 89.3838C69.3984 88.5277 67.7527 88.788 66.5774 89.965C65.4021 91.142 65.1423 92.7901 65.997 93.6462C66.8518 94.5022 68.4975 94.242 69.6728 93.0649Z" fill="#2F2E41"/>
<path d="M141.267 167.138H133.193C133.011 167.138 132.831 167.177 132.665 167.254C132.5 167.33 132.353 167.442 132.236 167.581C131.938 167.526 131.631 167.543 131.341 167.63C131.051 167.717 130.786 167.871 130.567 168.081C130.348 168.29 130.182 168.549 130.082 168.835C129.982 169.121 129.951 169.427 129.992 169.728C130.033 170.028 130.145 170.315 130.318 170.563C130.491 170.812 130.721 171.016 130.988 171.159C131.255 171.302 131.552 171.379 131.855 171.385C132.158 171.39 132.458 171.324 132.73 171.191L133.399 173.37C133.479 173.628 133.639 173.854 133.856 174.015C134.073 174.175 134.335 174.262 134.605 174.262H139.855C140.125 174.262 140.388 174.175 140.605 174.015C140.822 173.854 140.981 173.628 141.061 173.37L142.473 168.773C142.531 168.584 142.544 168.384 142.511 168.189C142.478 167.994 142.4 167.81 142.282 167.651C142.165 167.492 142.012 167.363 141.836 167.274C141.659 167.185 141.465 167.138 141.267 167.138ZM131.895 170.837C131.532 170.837 131.184 170.693 130.928 170.436C130.671 170.179 130.527 169.83 130.527 169.467C130.527 169.104 130.671 168.755 130.928 168.498C131.184 168.241 131.532 168.097 131.895 168.097C131.92 168.097 131.943 168.103 131.968 168.104C131.913 168.325 131.92 168.556 131.987 168.773L132.565 170.654C132.361 170.773 132.13 170.836 131.895 170.837Z" fill="#3F3D56"/>
<path d="M105.211 161.19C104.66 161.241 104.104 161.171 103.583 160.983C103.062 160.796 102.588 160.497 102.195 160.106C101.802 159.715 101.499 159.243 101.308 158.723C101.117 158.202 101.042 157.646 101.088 157.094L74.156 142.64L80.0467 138.863L105.456 153.62C106.378 153.76 107.216 154.233 107.813 154.951C108.409 155.669 108.722 156.581 108.692 157.514C108.661 158.447 108.29 159.337 107.649 160.014C107.008 160.692 106.14 161.11 105.211 161.19Z" fill="#FFB6B6"/>
<path d="M69.9534 116.078C69.9534 116.078 65.1473 115.475 63.9138 120.889C62.6803 126.304 71.1356 141.397 72.4257 143.871C73.7157 146.344 91.299 151.754 91.299 151.754L98.0696 148.213L82.9096 138.59L69.9534 116.078Z" fill="#125DB1"/>
<path d="M103.829 93.7069H105.471C106.269 93.7069 107.034 94.0245 107.599 94.5897C108.163 95.1549 108.48 95.9216 108.48 96.7209H100.82C100.82 95.9216 101.137 95.1549 101.701 94.5897C102.265 94.0245 103.031 93.7069 103.829 93.7069Z" fill="#CCCCCC"/>
<path d="M51.7754 37.4733C60.7572 37.4733 68.0384 30.1815 68.0384 21.1865C68.0384 12.1915 60.7572 4.89957 51.7754 4.89957C42.7936 4.89957 35.5125 12.1915 35.5125 21.1865C35.5125 30.1815 42.7936 37.4733 51.7754 37.4733Z" fill="#FF6584"/>
<path d="M101.569 20.3377C97.2648 15.8161 92.2662 11.6911 86.3487 9.5114C84.7004 8.90164 82.9913 8.47151 81.251 8.22846C81.237 8.22654 81.2237 8.22938 81.2098 8.22825C81.1815 8.22094 81.1528 8.2153 81.1238 8.21135C78.6898 7.90081 76.2192 8.05018 73.8402 8.65172C72.6767 8.9441 71.5418 9.34007 70.4488 9.83488C69.3519 10.3708 68.2892 10.974 67.2665 11.641C65.102 12.9386 62.7188 13.829 60.2344 14.2682C58.9874 14.4931 57.7244 14.6172 56.4576 14.6395C55.3584 14.6616 54.3217 14.6998 53.2803 15.0975C52.1678 15.5165 51.1684 16.19 50.362 17.0645C49.5556 17.9389 48.9645 18.99 48.6358 20.1338C48.6104 20.2357 48.6181 20.343 48.6576 20.4402C48.6971 20.5375 48.7664 20.6196 48.8556 20.6748C49.1373 20.8769 49.4119 21.1061 49.7079 21.2862C49.9712 21.4069 50.2525 21.4837 50.5405 21.5136C51.0111 21.613 51.4823 21.7096 51.9541 21.8032C53.6922 22.1481 55.4375 22.4534 57.19 22.7191C60.7362 23.2567 64.3015 23.6354 67.886 23.8552C75.0667 24.2908 82.2721 24.0739 89.4138 23.2072C93.4275 22.7204 97.4139 22.0299 101.358 21.1383C101.438 21.115 101.51 21.0713 101.568 21.0116C101.626 20.952 101.668 20.8783 101.689 20.7977C101.71 20.7172 101.71 20.6325 101.689 20.5519C101.668 20.4713 101.627 20.3975 101.569 20.3377Z" fill="#E6E6E6"/>
<path d="M52.5473 31.2272C50.899 30.6175 49.1899 30.1874 47.4496 29.9443C47.4356 29.9424 47.4223 29.9452 47.4084 29.9441C47.3801 29.9368 47.3514 29.9311 47.3224 29.9272C44.8884 29.6167 42.4178 29.766 40.0388 30.3676C38.8754 30.6599 37.7404 31.0559 36.6474 31.5507C35.5505 32.0866 34.4878 32.6898 33.4651 33.3568C31.3006 34.6544 28.9174 35.5448 26.4331 35.9841C25.1861 36.2089 23.923 36.3331 22.6562 36.3553C21.557 36.3774 20.5203 36.4156 19.4789 36.8133C18.3664 37.2323 17.3671 37.9059 16.5607 38.7803C15.7543 39.6547 15.1631 40.7058 14.8344 41.8497C14.809 41.9515 14.8167 42.0588 14.8562 42.1561C14.8957 42.2533 14.965 42.3354 15.0542 42.3906C15.3359 42.5927 15.6106 42.822 15.9065 43.002C16.1699 43.1227 16.4511 43.1995 16.7391 43.2294C17.2097 43.3288 17.6809 43.4254 18.1527 43.519C19.8908 43.8639 21.6361 44.1692 23.3886 44.4349C26.9348 44.9725 30.5001 45.3512 34.0846 45.571C41.2654 46.0066 48.4707 45.7897 55.6124 44.923C59.6261 44.4362 63.6125 43.7457 67.5563 42.8542C67.6361 42.8308 67.7086 42.7871 67.7666 42.7275C67.8247 42.6678 67.8663 42.5941 67.8876 42.5135C67.9088 42.433 67.9089 42.3483 67.8878 42.2677C67.8668 42.1871 67.8253 42.1133 67.7673 42.0535C63.4634 37.5319 58.4648 33.407 52.5473 31.2272Z" fill="#E6E6E6"/>
<path d="M169.826 152.643L157.32 136.19L147.452 141.778L168.363 166.646L169.826 152.643Z" fill="#3F3D56"/>
<path d="M198.635 125.896C198.913 132.791 199.98 139.632 201.814 146.284C201.42 147.213 201.014 148.135 200.594 149.052C199.007 152.521 197.229 155.9 195.27 159.173C189.775 168.365 182.916 176.666 174.928 183.792C174.064 184.562 173.187 185.319 172.299 186.063C167.235 179.071 164.501 171.355 163.421 163.414C163.284 162.406 163.172 161.387 163.087 160.373V160.368C162.879 157.904 162.813 155.43 162.887 152.959C162.89 152.761 162.895 152.561 162.904 152.361C162.999 149.72 163.237 147.073 163.596 144.451V144.448C163.637 144.147 163.678 143.846 163.724 143.544C163.856 142.64 164.004 141.736 164.165 140.837C165.104 135.654 166.416 130.545 168.088 125.551V125.548C168.135 125.403 168.181 125.26 168.233 125.118C168.414 124.575 168.597 124.038 168.786 123.501C168.798 123.459 168.812 123.418 168.83 123.378C169.073 122.677 169.322 121.981 169.577 121.29C169.645 121.098 169.716 120.907 169.79 120.715C170.077 119.945 170.37 119.18 170.668 118.427C170.761 118.186 170.857 117.945 170.953 117.706C171.027 117.523 171.098 117.339 171.174 117.158V117.156C171.609 116.079 172.05 115.023 172.496 113.988C173.746 111.078 175.032 108.341 176.285 105.818L176.288 105.815C181.489 95.3674 186.217 88.5832 186.217 88.5832L203.97 94.3371C201.853 98.0991 200.214 103.648 199.316 110.193C198.625 115.396 198.397 120.65 198.635 125.893L198.635 125.896Z" fill="#3F3D56"/>
<path d="M169.128 124.222C169.024 123.978 168.906 123.74 168.786 123.501C168.162 122.291 167.358 121.183 166.403 120.213C166.261 120.068 166.113 119.923 165.96 119.786C164.312 118.266 162.308 117.186 160.133 116.647C157.958 116.108 155.683 116.126 153.517 116.701L153.506 116.706L153.424 116.728L153.443 116.821C153.525 117.255 153.644 117.682 153.799 118.095C153.84 118.208 153.886 118.315 153.933 118.421C153.952 118.471 153.976 118.515 153.998 118.564C153.998 118.564 153.995 118.567 154.001 118.567C154.001 118.569 154.004 118.572 154.004 118.575C154.056 118.676 154.105 118.78 154.16 118.879C154.047 118.772 153.941 118.663 153.837 118.55C153.736 118.446 153.643 118.337 153.55 118.227C153.231 117.855 152.942 117.457 152.688 117.038L152.644 116.964L152.567 116.994C151.535 117.352 150.55 117.835 149.634 118.432L149.536 118.498C148.837 118.958 148.049 119.265 147.224 119.4C146.398 119.535 145.554 119.495 144.745 119.282C143.47 118.953 142.141 118.892 140.841 119.105C139.542 119.318 138.301 119.799 137.197 120.518C136.465 120.995 135.804 121.572 135.232 122.233C135.183 122.29 135.134 122.351 135.085 122.408C134.981 122.534 134.882 122.663 134.786 122.794C133.758 124.171 133.127 125.804 132.961 127.515L132.956 127.578L133.008 127.614C133.934 128.25 134.981 128.686 136.083 128.896C135.391 128.993 134.689 129.011 133.993 128.948H133.99C133.674 128.922 133.36 128.878 133.049 128.817L132.992 128.806H132.989L132.918 128.792L132.929 128.924C133.01 130.598 133.536 132.22 134.453 133.623L134.48 133.661C134.49 133.675 134.499 133.69 134.507 133.705C134.895 134.3 135.218 134.934 135.47 135.598C136.11 137.248 136.251 139.05 135.875 140.78C135.45 142.629 135.592 144.565 136.281 146.333C136.97 148.101 138.175 149.62 139.738 150.693C141.112 151.639 142.713 152.202 144.376 152.323C144.603 152.342 144.833 152.353 145.063 152.353C146.378 152.357 147.68 152.086 148.885 151.556L148.929 151.54L148.939 151.49C149.171 150.741 149.496 150.025 149.908 149.358C149.773 149.884 149.705 150.424 149.706 150.967V151.148L149.861 151.057C149.996 150.978 150.132 150.893 150.255 150.813C150.994 150.33 151.664 149.747 152.244 149.082C152.472 148.819 152.701 148.564 152.942 148.309L152.945 148.306C153.413 147.808 153.908 147.32 154.422 146.854C155.517 145.87 156.688 144.975 157.924 144.177C159.16 143.383 160.452 142.679 161.79 142.073H161.793C161.943 142.002 162.097 141.933 162.247 141.867C162.913 141.577 163.555 141.232 164.165 140.837C164.187 140.823 164.206 140.813 164.225 140.799C166.87 139.065 168.814 136.447 169.712 133.411C170.61 130.375 170.403 127.119 169.128 124.222L169.128 124.222Z" fill="#125DB1"/>
<path opacity="0.15" d="M136.326 144.67C136.251 145.003 136.195 145.34 136.157 145.679C135.647 144.067 135.573 142.349 135.943 140.699C136 140.446 136.042 140.191 136.076 139.934C136.581 141.462 136.668 143.097 136.326 144.67Z" fill="black"/>
<path opacity="0.15" d="M136.533 132.785C135.723 132.897 134.901 132.901 134.089 132.796C133.877 132.395 133.693 131.979 133.54 131.551C134.444 132.162 135.462 132.581 136.533 132.785Z" fill="black"/>
<path opacity="0.15" d="M134.024 128.86C133.725 129.627 133.526 130.428 133.433 131.246C133.183 130.467 133.036 129.66 132.995 128.843L132.988 128.711L133.117 128.737C133.417 128.793 133.72 128.834 134.024 128.86Z" fill="black"/>
<path opacity="0.15" d="M137.267 120.436C138.37 119.716 139.61 119.235 140.909 119.022C142.208 118.809 143.537 118.869 144.811 119.199C145.62 119.413 146.465 119.454 147.291 119.319C148.117 119.184 148.906 118.877 149.605 118.417L149.704 118.351C150.618 117.753 151.603 117.269 152.635 116.909L152.714 116.882L152.757 116.953C153.165 117.629 153.659 118.249 154.228 118.796C153.882 118.152 153.641 117.458 153.511 116.738L153.493 116.643L153.586 116.619C155.617 116.08 157.747 116.03 159.801 116.473C161.856 116.916 163.776 117.839 165.406 119.167C167.037 120.494 168.331 122.189 169.182 124.113C170.034 126.037 170.419 128.135 170.307 130.236C169.876 128.523 169.11 126.913 168.053 125.498C166.996 124.084 165.67 122.893 164.15 121.996C162.63 121.099 160.948 120.512 159.2 120.271C157.453 120.03 155.675 120.138 153.969 120.59L153.876 120.614L153.895 120.709C154.024 121.429 154.266 122.123 154.611 122.767C154.043 122.22 153.548 121.6 153.14 120.924L153.097 120.853L153.018 120.88C151.986 121.239 151.002 121.724 150.087 122.322L149.988 122.387C149.289 122.848 148.501 123.155 147.675 123.29C146.849 123.425 146.004 123.384 145.195 123.17C143.077 122.619 140.834 122.822 138.848 123.743C136.862 124.663 135.257 126.245 134.306 128.219C133.882 128.015 133.472 127.785 133.077 127.531L133.023 127.497L133.029 127.434C133.165 126.023 133.617 124.662 134.351 123.451C135.085 122.239 136.081 121.209 137.267 120.436Z" fill="black"/>
<path d="M238.979 50.4264L238.719 50.2538L238.531 50.5004C237.07 52.3426 235.907 54.4036 235.086 56.6078C235.199 54.0685 235.643 51.5549 236.405 49.1304L236.487 48.8756L236.252 48.7413C233.19 47.0054 229.929 45.6509 226.539 44.7081L226.17 44.6094C223.572 43.8956 221.153 42.6413 219.072 40.9285C216.991 39.2157 215.293 37.0828 214.091 34.6688C211.295 29.1288 206.879 24.5742 201.432 21.6128C195.985 18.6515 189.766 17.4242 183.604 18.0948H183.601C183.535 18.1002 183.467 18.1085 183.401 18.1167C183.289 18.1276 183.18 18.1413 183.07 18.155C182.846 18.1852 182.627 18.2153 182.408 18.2482C182.222 18.2756 182.033 18.3057 181.847 18.3386C181.749 18.3523 181.653 18.3688 181.557 18.3879C181.462 18.4044 181.363 18.4208 181.267 18.44H181.265C179.428 18.788 177.627 19.3062 175.886 19.9881H175.883V19.9908L175.443 20.1634C174.988 20.3497 174.538 20.547 174.091 20.7552C173.99 20.8018 173.891 20.8511 173.79 20.8977C173.763 20.9114 173.733 20.9251 173.705 20.9416C173.418 21.0786 173.133 21.221 172.852 21.3717C172.811 21.3909 172.77 21.4128 172.728 21.4348L172.466 21.5745C171.889 21.8869 171.321 22.2184 170.764 22.5691C170.718 22.5965 170.674 22.6239 170.627 22.654C170.578 22.6869 170.526 22.7198 170.477 22.7527C170.447 22.7691 170.417 22.791 170.387 22.8102C170.302 22.8623 170.22 22.9171 170.138 22.9746C169.973 23.0815 169.809 23.1911 169.648 23.3034C169.481 23.4158 169.317 23.5336 169.153 23.6514L168.988 23.7692L169.019 23.972C169.046 24.1391 169.071 24.3063 169.101 24.4706C169.128 24.635 169.155 24.7967 169.185 24.9584C169.232 25.2296 169.284 25.4981 169.336 25.7584C169.371 25.9311 169.404 26.1009 169.443 26.2681C169.478 26.4407 169.516 26.6133 169.558 26.7859C169.637 27.1421 169.722 27.4874 169.812 27.8271C169.856 27.997 169.902 28.1669 169.952 28.334C169.979 28.4354 170.006 28.5368 170.036 28.6354C170.058 28.7039 170.08 28.7724 170.102 28.8409C170.107 28.8628 170.113 28.8875 170.121 28.9121C170.127 28.9354 170.134 28.9582 170.143 28.9806C170.173 29.082 170.203 29.1807 170.233 29.2766C170.25 29.3286 170.266 29.3807 170.285 29.43C170.324 29.5478 170.365 29.6684 170.406 29.7835C170.449 29.915 170.496 30.0465 170.542 30.1753C170.553 30.2081 170.564 30.2383 170.575 30.2712C170.584 30.2958 170.592 30.3205 170.603 30.3451C170.614 30.3725 170.625 30.4027 170.635 30.4301C170.682 30.5534 170.729 30.6794 170.778 30.8027C170.794 30.8466 170.811 30.8931 170.83 30.937C171.273 32.0532 171.818 33.1263 172.458 34.1427C171.749 33.5345 171.067 32.8897 170.411 32.2083C169.399 31.1548 168.466 30.0274 167.62 28.8354C167.552 28.7423 167.484 28.6464 167.421 28.5505C167.292 28.3669 167.166 28.1833 167.043 27.997C166.912 27.8052 166.786 27.6052 166.663 27.4079C166.581 27.2764 166.499 27.1421 166.419 27.0106C166.34 26.8846 166.266 26.7613 166.195 26.6352L165.982 26.2681H165.979V26.2708L165.678 26.5667C165.558 26.6845 165.437 26.8024 165.32 26.9202C161.642 30.6255 158.979 35.2159 157.585 40.2501L157.544 40.4008L157.503 40.557C157.424 40.8365 157.344 41.1077 157.259 41.3845V41.3872C157.177 41.6612 157.09 41.9352 156.997 42.2037C156.912 42.4585 156.824 42.7106 156.731 42.9627C156.701 43.0476 156.669 43.1326 156.633 43.2175C156.575 43.3819 156.513 43.5436 156.45 43.708C156.42 43.7819 156.389 43.8587 156.359 43.9326C156.285 44.1135 156.212 44.2943 156.138 44.4724C156.127 44.4998 156.113 44.53 156.099 44.5574C156.078 44.6122 156.053 44.6669 156.031 44.719C155.974 44.8505 155.913 44.9848 155.856 45.1163C155.815 45.2012 155.777 45.2889 155.738 45.3739C155.722 45.4122 155.703 45.4506 155.686 45.4889C155.585 45.7081 155.481 45.9246 155.372 46.1383C155.249 46.3904 155.123 46.6425 154.989 46.8891C154.871 47.1192 154.748 47.3439 154.619 47.5686C154.398 47.9659 154.165 48.3604 153.924 48.744C153.831 48.892 153.738 49.04 153.643 49.1879C153.621 49.2235 153.599 49.2592 153.577 49.292C153.498 49.4208 153.415 49.5441 153.331 49.6701C153.273 49.7551 153.216 49.84 153.158 49.9222C153.063 50.0702 152.961 50.2127 152.857 50.3524C152.83 50.3962 152.8 50.4373 152.77 50.4784C152.617 50.6922 152.463 50.9004 152.307 51.1086C152.302 51.1114 152.302 51.1141 152.299 51.1169C152.294 51.1169 152.294 51.1196 152.291 51.1223C152.223 51.2128 152.154 51.3032 152.083 51.3909C151.99 51.5196 151.889 51.6457 151.788 51.769C151.623 51.9772 151.451 52.1882 151.276 52.3937C151.27 52.3992 151.268 52.4046 151.262 52.4074C150.356 53.474 149.374 54.474 148.324 55.3994C148.305 55.4159 148.291 55.4323 148.272 55.446C148.124 55.5748 147.976 55.7036 147.823 55.8296C147.76 55.8817 147.697 55.9337 147.634 55.9858C147.53 56.0735 147.424 56.1611 147.32 56.2406C147.307 56.2532 147.294 56.2642 147.279 56.2735C147.186 56.3502 147.095 56.4214 147.002 56.4927C146.89 56.5831 146.778 56.668 146.663 56.753C146.121 57.164 145.565 57.5521 144.994 57.9175C144.909 57.975 144.819 58.0325 144.732 58.0873C144.68 58.1202 144.628 58.1531 144.578 58.1805C144.37 58.3093 144.162 58.4353 143.955 58.5559C143.747 58.6792 143.533 58.797 143.323 58.9121C142.871 59.1587 142.425 59.4162 141.99 59.6847C141.771 59.8217 141.552 59.9587 141.336 60.0985C140.477 60.6574 139.65 61.2557 138.855 61.8932C138.06 62.531 137.297 63.2087 136.57 63.9235C136.48 64.0112 136.39 64.1016 136.299 64.1947C136.119 64.3728 135.944 64.5537 135.777 64.7345C135.509 65.0112 135.252 65.2962 134.997 65.5839C133.655 67.1085 132.468 68.7624 131.451 70.5213C130.941 71.3996 130.477 72.3041 130.061 73.2311C129.747 73.9243 129.46 74.634 129.2 75.3519C129.027 75.8314 128.866 76.3154 128.715 76.8041C128.641 77.0479 128.57 77.2945 128.502 77.5411C128.269 78.3768 128.075 79.2207 127.916 80.0674C127.788 80.7469 127.684 81.4273 127.605 82.1086C127.564 82.4511 127.531 82.7936 127.501 83.1334C127.43 83.9685 127.394 84.8043 127.393 85.6411C127.388 88.1512 127.692 90.6523 128.299 93.0877C128.434 93.6247 128.582 94.159 128.745 94.6906C128.828 94.9564 128.915 95.2194 129.003 95.4824C129.224 96.14 129.47 96.7912 129.739 97.436C129.9 97.8224 130.07 98.206 130.247 98.5868C131.378 101.008 132.82 103.27 134.537 105.316C134.819 105.653 135.11 105.985 135.41 106.311C135.413 106.311 135.41 106.314 135.41 106.314C136.155 107.127 136.943 107.899 137.771 108.626H137.774C138.105 108.919 138.442 109.203 138.784 109.478C138.786 109.475 138.786 109.478 138.786 109.478C139.131 109.758 139.479 110.026 139.834 110.286C140.012 110.415 140.193 110.544 140.376 110.673C140.734 110.928 141.1 111.173 141.473 111.41H141.476C141.848 111.651 142.225 111.881 142.608 112.1C143.377 112.541 144.165 112.955 144.975 113.331L145.112 113.394L145.251 113.331C146.55 112.745 147.888 112.254 149.257 111.859C149.558 111.772 149.861 111.692 150.162 111.615C150.923 111.426 151.689 111.267 152.461 111.139C151.709 111.516 150.983 111.944 150.288 112.418C149.749 112.783 149.219 113.18 148.685 113.618C148.507 113.764 148.329 113.914 148.151 114.068L147.708 114.451L148.264 114.635C148.466 114.701 148.669 114.766 148.871 114.827C149.147 114.914 149.421 114.994 149.689 115.068C150.275 115.232 150.864 115.377 151.457 115.503C151.602 115.534 151.744 115.564 151.889 115.594C152.171 115.649 152.455 115.703 152.74 115.753C152.751 115.756 152.763 115.758 152.775 115.758C153.071 115.808 153.369 115.854 153.664 115.895C154.214 115.975 154.764 116.038 155.314 116.084C155.374 116.092 155.435 116.095 155.498 116.098C155.632 116.109 155.763 116.12 155.897 116.128C156.192 116.147 156.491 116.161 156.789 116.172C156.811 116.172 156.83 116.175 156.852 116.175C157.002 116.18 157.153 116.186 157.303 116.188C157.303 116.188 157.303 116.191 157.306 116.188C157.456 116.191 157.607 116.194 157.757 116.194H158.589C158.745 116.194 158.901 116.197 159.06 116.197C159.279 116.197 159.5 116.199 159.719 116.202C159.777 116.202 159.837 116.205 159.897 116.205C160.247 116.21 160.597 116.219 160.948 116.227C160.969 116.227 160.991 116.229 161.013 116.229C161.363 116.24 161.714 116.251 162.064 116.268C162.14 116.271 162.217 116.273 162.296 116.279C162.633 116.292 162.969 116.309 163.306 116.328C163.402 116.334 163.5 116.342 163.599 116.347C163.853 116.361 164.11 116.377 164.365 116.397C164.515 116.405 164.663 116.416 164.813 116.429C165.421 116.476 166.025 116.528 166.633 116.588C166.835 116.605 167.038 116.627 167.24 116.649C167.782 116.706 168.325 116.769 168.871 116.838C169.114 116.865 169.358 116.898 169.601 116.931C169.629 116.934 169.656 116.936 169.683 116.942C169.984 116.983 170.283 117.024 170.584 117.068C170.781 117.095 170.978 117.125 171.174 117.156C171.377 117.186 171.579 117.216 171.782 117.251C171.891 117.268 172.001 117.287 172.113 117.306C172.376 117.347 172.641 117.391 172.906 117.441C172.93 117.443 172.954 117.447 172.977 117.452C173.541 117.55 174.107 117.654 174.671 117.767C175.002 117.83 175.33 117.895 175.659 117.964C175.916 118.016 176.173 118.071 176.43 118.126C176.474 118.134 176.518 118.145 176.562 118.156C176.571 118.159 176.581 118.16 176.592 118.161C176.98 118.246 177.371 118.334 177.76 118.427C179.109 118.739 180.456 119.086 181.801 119.468C182.11 119.553 182.419 119.643 182.728 119.734C182.86 119.772 182.988 119.811 183.117 119.849C183.385 119.928 183.65 120.008 183.919 120.093C184.154 120.164 184.392 120.238 184.627 120.315C184.775 120.361 184.923 120.408 185.07 120.457C185.3 120.528 185.53 120.602 185.757 120.682C185.951 120.742 186.143 120.805 186.334 120.874C186.608 120.964 186.884 121.057 187.158 121.156C187.237 121.183 187.319 121.211 187.399 121.241C187.732 121.356 188.066 121.474 188.4 121.597C188.726 121.715 189.051 121.835 189.374 121.956C189.598 122.041 189.823 122.123 190.044 122.211C190.293 122.307 190.542 122.403 190.788 122.501C191.144 122.641 191.503 122.783 191.858 122.929C192.187 123.06 192.512 123.194 192.84 123.334C192.901 123.359 192.964 123.384 193.024 123.411C193.308 123.529 193.593 123.652 193.875 123.775C194.058 123.852 194.239 123.932 194.419 124.011C195.207 124.356 195.994 124.713 196.78 125.082H196.783C197.275 125.315 197.776 125.537 198.28 125.748C198.397 125.797 198.515 125.847 198.635 125.893C198.835 125.978 199.037 126.058 199.24 126.14C199.371 126.192 199.502 126.244 199.637 126.293C199.831 126.37 200.028 126.444 200.225 126.515C200.433 126.592 200.638 126.669 200.849 126.74C200.922 126.767 200.996 126.792 201.073 126.819C201.316 126.902 201.56 126.984 201.806 127.063C201.831 127.072 201.855 127.08 201.883 127.088C202.14 127.17 202.397 127.252 202.657 127.329C202.678 127.337 202.699 127.343 202.72 127.348C202.999 127.433 203.284 127.515 203.565 127.595C203.981 127.71 204.4 127.82 204.818 127.921C204.895 127.94 204.972 127.959 205.048 127.976C205.273 128.031 205.494 128.083 205.719 128.132C205.957 128.187 206.197 128.236 206.435 128.285C206.676 128.335 206.917 128.384 207.155 128.428C207.284 128.452 207.412 128.477 207.538 128.499L207.874 128.557C208.107 128.598 208.34 128.633 208.575 128.672C208.581 128.671 208.588 128.672 208.594 128.674C208.859 128.716 209.122 128.754 209.387 128.787C209.642 128.822 209.896 128.853 210.151 128.883C210.203 128.888 210.257 128.894 210.312 128.899C210.523 128.924 210.734 128.948 210.944 128.968C211.004 128.973 211.065 128.979 211.125 128.984C211.333 129.003 211.541 129.022 211.749 129.036C211.79 129.042 211.832 129.044 211.874 129.044C212.06 129.061 212.247 129.074 212.433 129.083C212.564 129.094 212.692 129.099 212.824 129.107C212.892 129.11 212.958 129.113 213.026 129.116C213.207 129.127 213.387 129.132 213.571 129.137C213.792 129.146 214.014 129.151 214.233 129.157C214.498 129.162 214.766 129.165 215.032 129.165H215.037C215.297 129.165 215.56 129.162 215.82 129.157H215.918L216.205 129.148C216.353 129.146 216.501 129.14 216.646 129.135C216.925 129.124 217.201 129.11 217.478 129.094C217.587 129.088 217.699 129.08 217.809 129.074C217.858 129.072 217.91 129.066 217.959 129.064C218.132 129.053 218.301 129.042 218.474 129.028C218.651 129.014 218.832 128.998 219.01 128.979C219.24 128.957 219.469 128.932 219.699 128.907C219.88 128.888 220.06 128.866 220.238 128.844C220.262 128.842 220.286 128.839 220.309 128.833C220.482 128.814 220.654 128.792 220.824 128.768C221.026 128.74 221.226 128.71 221.426 128.68C221.448 128.677 221.467 128.674 221.489 128.672C221.833 128.617 222.181 128.562 222.528 128.499C222.892 128.433 223.256 128.362 223.617 128.288C223.751 128.261 223.883 128.231 224.017 128.203C224.09 128.187 224.167 128.173 224.238 128.157C224.35 128.132 224.46 128.107 224.569 128.08C224.588 128.077 224.61 128.072 224.629 128.069C224.783 128.036 224.933 127.998 225.086 127.959C225.393 127.885 225.694 127.809 225.995 127.726C226.129 127.694 226.263 127.658 226.391 127.622C226.43 127.611 226.468 127.6 226.504 127.589C227.059 127.433 227.61 127.268 228.156 127.093C228.397 127.017 228.635 126.937 228.873 126.852C229.385 126.677 229.892 126.493 230.394 126.299C230.528 126.25 230.662 126.195 230.796 126.143C230.993 126.063 231.19 125.984 231.385 125.904C231.56 125.83 231.735 125.756 231.913 125.68C232 125.644 232.088 125.606 232.175 125.567C232.438 125.452 232.701 125.334 232.96 125.217C233.136 125.134 233.308 125.055 233.48 124.973C233.754 124.841 234.025 124.707 234.296 124.573C234.364 124.537 234.43 124.501 234.495 124.469C234.668 124.381 234.84 124.291 235.015 124.203C235.291 124.055 235.568 123.907 235.841 123.753C235.934 123.704 236.025 123.652 236.118 123.6C236.419 123.43 236.717 123.258 237.012 123.082C237.666 122.69 238.311 122.281 238.947 121.855C239.105 121.751 239.264 121.641 239.42 121.534C239.715 121.331 240.005 121.123 240.296 120.915C240.326 120.893 240.353 120.871 240.383 120.852C240.528 120.745 240.673 120.638 240.818 120.529C241.119 120.301 241.417 120.071 241.715 119.835C241.721 119.833 241.729 119.824 241.737 119.819C241.871 119.712 242.005 119.605 242.137 119.498C242.544 119.167 242.947 118.83 243.341 118.482C243.535 118.315 243.726 118.142 243.915 117.969C244.057 117.841 244.2 117.712 244.339 117.58C244.621 117.315 244.897 117.051 245.171 116.783C245.308 116.651 245.442 116.514 245.579 116.377C245.713 116.24 245.849 116.103 245.984 115.964C246.03 115.917 246.077 115.868 246.123 115.819C246.26 115.673 246.397 115.525 246.533 115.38C246.651 115.254 246.766 115.123 246.884 114.991C247.081 114.772 247.28 114.553 247.475 114.331C247.485 114.318 247.496 114.306 247.507 114.295C247.518 114.281 247.529 114.27 247.538 114.259H247.535C251.512 109.654 254.466 104.255 256.204 98.4204C257.941 92.5856 258.421 86.4479 257.612 80.4133C256.804 74.3788 254.724 68.585 251.512 63.4155C248.3 58.246 244.028 53.8187 238.979 50.4264L238.979 50.4264Z" fill="#125DB1"/>
<g opacity="0.15">
<path opacity="0.15" d="M183.602 18.0926C184.147 20.0545 184.968 21.9291 186.039 23.6602C184.246 22.1175 182.643 20.3652 181.266 18.4408C182.04 18.2943 182.818 18.1782 183.602 18.0926Z" fill="black"/>
<path opacity="0.15" d="M156.905 48.4342C154.88 49.541 152.987 50.8738 151.261 52.4072C154.175 48.957 156.304 44.9135 157.502 40.557C157.516 40.5047 157.531 40.452 157.545 40.3996L157.586 40.2513C159.025 35.0518 161.817 30.3284 165.677 26.5642L165.98 26.2681L166.194 26.634C167.378 28.6489 168.794 30.5174 170.413 32.2007C167.931 39.2133 163.103 45.0498 156.905 48.4342Z" fill="black"/>
<path opacity="0.15" d="M171.167 29.7709L171.126 29.9192C171.112 29.9716 171.098 30.0243 171.083 30.0766C171.003 30.3649 170.918 30.6511 170.831 30.936C169.965 28.691 169.357 26.3546 169.019 23.972L168.987 23.7699L169.153 23.6511C171.235 22.1529 173.496 20.9219 175.884 19.9868C173.74 22.9395 172.143 26.2533 171.167 29.7709Z" fill="black"/>
<path opacity="0.15" d="M143.323 58.9146C145.116 57.9323 146.793 56.7532 148.324 55.3991C145.265 58.9661 143.072 63.1942 141.917 67.752C140.763 72.3097 140.678 77.0734 141.669 81.6696C142.66 86.2659 144.7 90.5699 147.63 94.2444C150.559 97.9188 154.299 100.864 158.555 102.849L158.694 102.913L158.832 102.851C161.131 101.81 163.555 101.073 166.043 100.658C164.49 101.45 163.042 102.434 161.734 103.587L161.291 103.971L161.846 104.154C162.326 104.313 162.805 104.459 163.271 104.589C166.009 105.352 168.84 105.732 171.682 105.716C184.596 105.633 197.611 108.623 210.364 114.603C212.551 115.626 214.819 116.466 217.146 117.113C227.284 119.94 238.106 118.923 247.543 114.257C242.223 120.419 235.266 124.942 227.482 127.303C219.697 129.664 211.403 129.764 203.564 127.593C201.238 126.947 198.969 126.107 196.782 125.083C184.029 119.103 171.015 116.113 158.101 116.196C155.258 116.212 152.428 115.833 149.69 115.069C149.224 114.94 148.744 114.793 148.265 114.635L147.71 114.451L148.152 114.068C149.461 112.915 150.908 111.93 152.462 111.138C149.973 111.554 147.549 112.291 145.25 113.331L145.112 113.393L144.974 113.329C139.862 110.947 135.513 107.189 132.41 102.474C129.307 97.76 127.573 92.275 127.402 86.6314C127.231 80.9878 128.629 75.4075 131.441 70.5133C134.252 65.6191 138.366 61.6035 143.324 58.9146L143.323 58.9146Z" fill="black"/>
</g>
</g>
<defs>
<clipPath id="clip0_101_9">
<rect width="258" height="218" fill="white"/>
</clipPath>
</defs>
</svg>
