<svg width="283" height="242" viewBox="0 0 283 242" fill="none" xmlns="http://www.w3.org/2000/svg">
<path d="M38.4876 163.37C54.893 163.37 68.1923 136.266 68.1923 102.832C68.1923 69.3971 54.893 42.2932 38.4876 42.2932C22.0821 42.2932 8.78284 69.3971 8.78284 102.832C8.78284 136.266 22.0821 163.37 38.4876 163.37Z" fill="#125DB1"/>
<path d="M38.2148 103.46C39.6965 77.1076 42.682 59.3077 42.712 59.131L42.0642 59.0214C42.0342 59.1983 39.0435 77.0267 37.5593 103.413C36.1897 127.765 35.8593 164.6 42.0641 201.785L42.7121 201.677C36.5179 164.556 36.8476 127.776 38.2148 103.46Z" fill="#3F3D56"/>
<path d="M65.0367 90.5545L38.179 104.913L38.489 105.491L65.3468 91.1331L65.0367 90.5545Z" fill="#3F3D56"/>
<path d="M10.136 97.7507L9.82605 98.3295L36.6877 112.68L36.9976 112.102L10.136 97.7507Z" fill="#3F3D56"/>
<path d="M244.463 157.077C265.746 157.077 283 121.914 283 78.5383C283 35.1628 265.746 0 244.463 0C223.18 0 205.926 35.1628 205.926 78.5383C205.926 121.914 223.18 157.077 244.463 157.077Z" fill="#125DB1"/>
<path d="M243.995 79.3429C245.918 45.1501 249.792 22.0543 249.831 21.8249L249.216 21.721C249.177 21.9505 245.299 45.0734 243.374 79.2983C241.597 110.886 241.168 158.664 249.216 206.895L249.831 206.792C241.793 158.621 242.221 110.897 243.995 79.3429Z" fill="#3F3D56"/>
<path d="M278.96 62.7119L244.117 81.3392L244.411 81.8878L279.254 63.2604L278.96 62.7119Z" fill="#3F3D56"/>
<path d="M207.628 72.0478L207.334 72.5964L242.182 91.2144L242.476 90.6657L207.628 72.0478Z" fill="#3F3D56"/>
<path d="M198.033 178.348C205.985 178.348 212.431 165.21 212.431 149.004C212.431 132.798 205.985 119.66 198.033 119.66C190.081 119.66 183.634 132.798 183.634 149.004C183.634 165.21 190.081 178.348 198.033 178.348Z" fill="#E6E6E6"/>
<path d="M198.02 150.268L198.105 150.428L211.124 143.468L210.83 142.919L198.047 149.753C198.754 136.749 200.201 128.019 200.23 127.847L199.616 127.743C199.584 127.931 197.865 138.298 197.255 153.298L184.363 146.406L184.069 146.954L197.087 153.914L197.243 153.624C196.755 166.005 197.028 181.485 199.616 196.994L200.231 196.891C197.409 179.983 197.347 163.106 198.02 150.268Z" fill="#3F3D56"/>
<path d="M270.988 213.338C194.297 189.089 124.755 190.381 79.9215 195.734C31.3501 201.535 0.529088 213.214 0.223558 213.332L0 212.751C0.306443 212.633 31.2 200.926 79.8476 195.117C108.463 191.704 137.335 190.966 166.088 192.913C201.782 195.326 237.061 201.984 271.176 212.745L270.988 213.338Z" fill="#3F3D56"/>
<path d="M98.5808 206.485C98.5808 206.485 98.7959 201.983 103.205 202.506L98.5808 206.485Z" fill="#3F3D56"/>
<path d="M97.3349 202.201C98.5537 202.201 99.5417 201.214 99.5417 199.997C99.5417 198.779 98.5537 197.792 97.3349 197.792C96.1162 197.792 95.1282 198.779 95.1282 199.997C95.1282 201.214 96.1162 202.201 97.3349 202.201Z" fill="#125DB1"/>
<path d="M97.5989 203.708H96.976V208.064H97.5989V203.708Z" fill="#3F3D56"/>
<path d="M178.938 207.418C178.938 207.418 179.153 202.916 183.562 203.44L178.938 207.418Z" fill="#3F3D56"/>
<path d="M177.692 203.134C178.911 203.134 179.899 202.147 179.899 200.93C179.899 199.713 178.911 198.726 177.692 198.726C176.473 198.726 175.485 199.713 175.485 200.93C175.485 202.147 176.473 203.134 177.692 203.134Z" fill="#125DB1"/>
<path d="M177.956 204.642H177.333V208.997H177.956V204.642Z" fill="#3F3D56"/>
<path d="M46.567 199.64C46.567 199.64 46.7821 195.139 51.1913 195.662L46.567 199.64Z" fill="#3F3D56"/>
<path d="M45.3212 195.357C46.5399 195.357 47.5279 194.37 47.5279 193.153C47.5279 191.935 46.5399 190.948 45.3212 190.948C44.1024 190.948 43.1144 191.935 43.1144 193.153C43.1144 194.37 44.1024 195.357 45.3212 195.357Z" fill="#125DB1"/>
<path d="M45.585 196.864H44.962V201.22H45.585V196.864Z" fill="#3F3D56"/>
<path d="M80.5161 193.73C80.5161 193.73 80.7312 189.228 85.1404 189.751L80.5161 193.73Z" fill="#3F3D56"/>
<path d="M79.2703 189.446C80.489 189.446 81.477 188.459 81.477 187.242C81.477 186.025 80.489 185.038 79.2703 185.038C78.0515 185.038 77.0635 186.025 77.0635 187.242C77.0635 188.459 78.0515 189.446 79.2703 189.446Z" fill="#125DB1"/>
<path d="M79.5342 190.953H78.9113V195.309H79.5342V190.953Z" fill="#3F3D56"/>
<path d="M165.545 202.129C165.545 202.129 165.76 197.628 170.169 198.151L165.545 202.129Z" fill="#3F3D56"/>
<path d="M164.299 197.846C165.518 197.846 166.506 196.859 166.506 195.641C166.506 194.424 165.518 193.437 164.299 193.437C163.08 193.437 162.092 194.424 162.092 195.641C162.092 196.859 163.08 197.846 164.299 197.846Z" fill="#125DB1"/>
<path d="M164.563 199.353H163.94V203.708H164.563V199.353Z" fill="#3F3D56"/>
<path d="M261.319 193.105L274.139 212.091L262.204 224.012L260.656 220.921L263.309 214.74C263.309 214.74 262.867 209 261.319 207.455C259.772 205.909 252.921 196.638 252.921 196.638L261.319 193.105Z" fill="#FFB8B8"/>
<path d="M244.964 131.734C244.964 131.734 247.395 135.577 242.311 152.134C242.311 152.134 266.023 192.106 262.265 194.755C258.508 197.404 248.34 203.267 245.688 201.5C243.036 199.734 223.746 139.902 223.746 139.902L244.964 131.734Z" fill="#2F2E41"/>
<path d="M271.818 208.669L275.686 212.532C277.675 214.519 279.001 217.389 275.244 219.817C271.486 222.246 258.446 231.297 254.026 228.427C249.605 225.557 259.33 222.908 259.33 222.908C259.33 222.908 260.938 216.953 261.792 218.275C262.646 219.597 262.646 222.246 262.646 222.246L271.818 208.669Z" fill="#2F2E41"/>
<path d="M225.072 203.481C225.072 203.481 217.999 216.506 217.999 218.051C217.999 219.597 218.442 224.012 218.442 224.012L204.959 227.323L200.318 225.116L201.865 221.142C201.865 221.142 210.264 218.272 212.032 212.753C213.8 207.234 215.789 201.494 215.789 201.494L225.072 203.481Z" fill="#FFB8B8"/>
<path d="M233.25 73.8947C238.377 73.8947 242.533 69.7435 242.533 64.6228C242.533 59.502 238.377 55.3508 233.25 55.3508C228.123 55.3508 223.967 59.502 223.967 64.6228C223.967 69.7435 228.123 73.8947 233.25 73.8947Z" fill="#FFB8B8"/>
<path d="M230.819 72.5701L235.25 85.2893L244.964 80.959C244.964 80.959 238.333 70.8041 238.333 69.4795L230.819 72.5701Z" fill="#FFB8B8"/>
<path d="M229.492 117.826H241.207C241.207 117.826 249.605 130.63 244.743 144.097C243.998 146.159 243.259 149.047 242.521 152.463C240.825 160.317 239.135 170.956 237.404 180.732C234.972 194.465 232.458 206.495 229.725 206.713C224.199 207.155 213.454 207.081 213.454 204.873C213.454 202.666 220.652 138.798 220.652 138.798L222.199 136.149L222.491 124.61C222.537 122.789 223.296 121.059 224.605 119.79C225.914 118.522 227.669 117.817 229.492 117.826Z" fill="#2F2E41"/>
<path d="M217.889 217.941C217.889 217.941 220.431 222.246 219.768 225.336C219.104 228.427 217.999 227.986 213.137 228.427C208.275 228.869 191.698 228.869 191.698 225.778C191.698 222.687 204.629 218.674 204.684 219.908C204.738 221.142 205.18 223.57 203.854 224.012C202.528 224.453 203.744 224.122 203.744 224.122L217.889 217.941Z" fill="#2F2E41"/>
<path d="M230.82 145.381C230.82 145.381 229.859 161.062 223.446 156.394C217.034 151.725 225.945 143.292 225.945 143.292L230.82 145.381Z" fill="white"/>
<path d="M243.619 124.727C243.927 124.866 244.268 124.918 244.603 124.879C244.939 124.839 245.258 124.709 245.525 124.502C245.913 124.198 246.171 123.758 246.248 123.272C247.175 117.933 248.304 103.133 248.954 95.6495C249.77 86.2588 245.695 78.9855 245.66 78.9412L243.259 75.643C243.01 75.2984 242.651 75.0483 242.241 74.9334C241.831 74.8185 241.394 74.8455 241.002 75.0102C241.002 75.0102 233.504 82.7796 233.477 83.0796C233.359 84.3677 232.467 87.2223 227.816 91.8677C222.727 96.9506 222.699 101.387 222.811 102.626C222.819 102.707 222.823 102.788 222.823 102.87C222.813 103.425 222.889 103.979 223.047 104.512C225.178 111.224 223.509 119.26 220.829 127.648C220.727 128.027 220.746 128.428 220.883 128.796C221.019 129.164 221.267 129.48 221.592 129.701C222.375 130.233 221.436 129.443 221.715 129.785C223.563 132.046 226.221 128.895 229.262 125.456C230.322 124.259 231.522 122.901 232.937 121.488C234.883 119.544 238.6 123.979 240.329 123.979C241.466 123.993 242.588 124.248 243.619 124.727Z" fill="#575A89"/>
<path d="M244.65 82.3656C244.65 82.3656 249.505 86.4554 246.747 91.7594C243.988 97.0634 244.355 100.975 244.355 100.975C244.355 100.975 243.621 137.412 235.002 135.642L231.081 146.453L224.001 143.901L228.095 134.365C228.095 134.365 224.816 134.161 225.774 131.929C226.447 130.362 230.073 113.351 232.172 103.364C233.061 99.1318 233.677 96.1609 233.677 96.1609C233.677 96.1609 236.466 81.2621 244.65 82.3656Z" fill="#575A89"/>
<path opacity="0.2" d="M245.668 100.882L242.938 118.773L244.411 99.6425L245.668 100.882Z" fill="black"/>
<path d="M223.122 60.5146C223.122 60.5146 221.561 48.3834 234.295 52.3615C234.295 52.3615 243.389 50.6948 246.372 62.0572L249.392 73.9678L247.92 73.1676L247.234 74.6657L244.849 75.269L243.828 73.2457L243.335 75.7027L223.801 77.6478C223.801 77.6478 232.55 72.4799 232.688 63.2178L231.022 64.9767L223.122 60.5146Z" fill="#2F2E41"/>
<path opacity="0.2" d="M237.649 181.43L242.004 152.44L238.462 183.736L237.649 181.43Z" fill="black"/>
<path d="M244.767 57.3863C247.48 57.3863 249.679 55.1898 249.679 52.4803C249.679 49.7708 247.48 47.5743 244.767 47.5743C242.054 47.5743 239.855 49.7708 239.855 52.4803C239.855 55.1898 242.054 57.3863 244.767 57.3863Z" fill="#2F2E41"/>
<path d="M239.706 51.2793C239.787 50.0345 240.339 48.8673 241.252 48.0154C242.164 47.1635 243.367 46.6909 244.615 46.6939C244.514 46.681 244.413 46.6654 244.31 46.6588C243.666 46.6171 243.02 46.7025 242.41 46.9102C241.799 47.1179 241.235 47.4437 240.75 47.8692C240.265 48.2946 239.869 48.8112 239.585 49.3895C239.3 49.9679 239.132 50.5966 239.091 51.2397C239.049 51.8829 239.135 52.5279 239.343 53.1379C239.552 53.7479 239.878 54.3109 240.304 54.7948C240.731 55.2787 241.248 55.674 241.827 55.9581C242.406 56.2422 243.036 56.4096 243.68 56.4506C243.783 56.4572 243.885 56.4546 243.987 56.4548C242.748 56.2981 241.616 55.6755 240.82 54.7139C240.025 53.7523 239.626 52.524 239.706 51.2793Z" fill="#2F2E41"/>
<path opacity="0.2" d="M230.75 106.457L226.428 129.592L232.03 104.039L230.75 106.457Z" fill="black"/>
<path d="M231.02 71.3045L228.501 73.2013C225.907 71.8975 223.961 68.8807 223.254 66.0014L225.999 64.6182C226.215 67.5549 228.302 69.5073 231.02 71.3045Z" fill="white"/>
<path d="M232.066 65.036H225.79C225.734 65.036 225.681 65.014 225.642 64.9748C225.603 64.9356 225.58 64.8825 225.58 64.8271C225.58 64.7716 225.603 64.7185 225.642 64.6793C225.681 64.6401 225.734 64.6181 225.79 64.6181H232.066C232.121 64.6181 232.174 64.6401 232.213 64.6793C232.253 64.7185 232.275 64.7716 232.275 64.8271C232.275 64.8825 232.253 64.9356 232.213 64.9748C232.174 65.014 232.121 65.036 232.066 65.036Z" fill="white"/>
<path d="M230.81 71.3045C230.776 71.3046 230.742 71.2962 230.712 71.2802C230.682 71.2642 230.656 71.241 230.637 71.2128C230.618 71.1845 230.606 71.152 230.602 71.118C230.599 71.0841 230.603 71.0497 230.616 71.0181L232.29 66.8391C232.3 66.8135 232.315 66.7902 232.334 66.7705C232.353 66.7508 232.376 66.735 232.401 66.7242C232.427 66.7133 232.454 66.7075 232.481 66.7072C232.509 66.7068 232.536 66.7119 232.562 66.7221C232.587 66.7323 232.611 66.7474 232.63 66.7666C232.65 66.7858 232.666 66.8087 232.676 66.834C232.687 66.8593 232.693 66.8864 232.693 66.9139C232.693 66.9414 232.688 66.9687 232.678 66.9941L231.004 71.1731C230.989 71.2119 230.962 71.2452 230.928 71.2686C230.893 71.292 230.852 71.3046 230.81 71.3045Z" fill="white"/>
<path d="M232.488 67.505C233.335 67.505 234.023 66.544 234.023 65.3586C234.023 64.1732 233.335 63.2122 232.488 63.2122C231.64 63.2122 230.953 64.1732 230.953 65.3586C230.953 66.544 231.64 67.505 232.488 67.505Z" fill="#FFB8B8"/>
<path d="M124.332 71.8242L140.679 75.5607L147.586 62.5492L133.608 57.0982L124.332 71.8242Z" fill="#2F2E41"/>
<path d="M133.017 141.867C133.017 141.867 127.763 153.895 127.763 157.395C127.763 157.395 129.843 166.908 129.186 169.532L126.887 174.453L122.07 172.484L120.756 159.363L120.975 138.368L133.017 141.867Z" fill="#FFB9B9"/>
<path d="M135.973 69.9171C135.973 69.9171 136.411 77.134 135.535 79.321C134.66 81.5079 138.82 85.6631 138.82 85.6631L145.388 77.134C145.388 77.134 141.009 72.7602 142.104 67.9489L135.973 69.9171Z" fill="#FFB9B9"/>
<path d="M122.289 119.889C122.289 119.889 115.939 131.698 122.07 130.823C128.201 129.948 126.121 119.561 126.121 119.561" fill="#E6E6E6"/>
<path d="M126.121 119.561L128.2 98.8941L128.091 86.3193L123.274 87.1938V98.7846L122.289 119.889" fill="#FFB9B9"/>
<path d="M120.866 170.954L130.281 167.236L131.375 185.825C131.375 185.825 133.346 191.511 132.689 193.698C132.689 193.698 133.127 197.415 132.032 197.634C130.937 197.853 127.872 198.29 127.653 198.072C127.434 197.853 127.434 197.197 127.434 197.197C127.434 197.197 125.245 198.728 125.026 200.477C125.026 200.477 115.83 203.32 115.611 200.696C115.392 198.072 120.209 195.885 120.209 195.885L123.931 190.199L120.866 170.954Z" fill="#2F2E41"/>
<path d="M152.614 141.867C152.614 141.867 147.359 153.895 147.359 157.395C147.359 157.395 149.439 166.908 148.782 169.532L146.483 174.453L141.666 172.484L140.352 159.363L140.571 138.368L152.614 141.867Z" fill="#FFB9B9"/>
<path d="M140.79 170.954L150.205 167.236L151.3 185.825C151.3 185.825 153.27 191.511 152.614 193.698C152.614 193.698 153.052 197.415 151.957 197.634C150.862 197.853 147.797 198.29 147.578 198.072C147.359 197.853 147.359 197.197 147.359 197.197C147.359 197.197 145.169 198.728 144.95 200.477C144.95 200.477 135.754 203.32 135.535 200.696C135.316 198.072 140.133 195.885 140.133 195.885L143.856 190.199L140.79 170.954Z" fill="#2F2E41"/>
<path d="M145.171 64.8883C145.17 66.6105 144.533 68.272 143.383 69.5548C142.233 70.8377 140.649 71.6517 138.935 71.8413C137.221 72.0308 135.498 71.5826 134.094 70.5822C132.691 69.5819 131.706 68.0998 131.328 66.4194C131.212 65.9172 131.155 65.4035 131.156 64.8883C131.157 63.0328 131.896 61.2537 133.21 59.9422C134.524 58.6306 136.306 57.8938 138.163 57.8938C140.021 57.8938 141.803 58.6306 143.117 59.9422C144.431 61.2537 145.17 63.0328 145.171 64.8883Z" fill="#FFB9B9"/>
<path d="M139.039 78.8836L144.476 76.0634L146.921 78.0088C146.921 78.0088 152.833 77.7901 155.022 80.4145C157.212 83.0388 158.416 89.7089 158.416 89.7089C158.416 89.7089 151.19 88.1781 152.066 94.3015L150.753 90.8024L149.548 93.7548L134.879 98.7847L128.31 87.6313C128.31 87.6313 123.931 86.3192 122.398 89.3809C122.398 89.3809 122.727 78.3369 126.996 78.0088C129.868 77.7882 132.032 77.7901 132.032 77.7901L134.441 77.3527L135.983 76.806L139.039 78.8836Z" fill="#575A89"/>
<path d="M148.344 102.831C148.344 102.831 159.839 137.275 156.555 142.086C156.555 142.086 144.293 148.209 119.771 139.899L129.733 101.3C135.853 100.05 142.056 100.56 148.344 102.831Z" fill="#2F2E41"/>
<path d="M148.344 102.831L151.579 91.7262C147.698 87.5108 151.048 78.1632 151.048 78.1632L146.365 77.161C146.365 77.161 141.666 89.8183 136.849 88.2874C132.032 86.7565 134.66 76.9153 134.66 76.9153L130.281 77.3527L128.31 85.007L129.733 101.3C135.669 100.791 141.894 101.383 148.344 102.831Z" fill="#575A89"/>
<path d="M154.037 119.561L155.569 98.7846L156.007 86.3193L151.191 87.1938V98.7846L150.205 119.889" fill="#FFB9B9"/>
<path d="M150.205 119.889C150.205 119.889 143.856 131.698 149.986 130.823C156.117 129.948 154.037 119.561 154.037 119.561" fill="white"/>
<path d="M158.416 89.7089C158.416 89.7089 157.638 78.4777 151.13 78.5166V91.505C151.13 91.505 156.007 88.6154 158.416 89.7089Z" fill="#575A89"/>
<path d="M140.404 66.6942C140.367 66.6942 140.331 66.6828 140.3 66.6614C140.27 66.64 140.247 66.6097 140.235 66.5748C140.223 66.5399 140.222 66.5021 140.232 66.4665C140.242 66.4309 140.263 66.3994 140.292 66.3763L143.866 63.521C143.884 63.5062 143.905 63.4951 143.928 63.4884C143.95 63.4818 143.974 63.4796 143.997 63.4822C144.021 63.4847 144.043 63.4918 144.064 63.5031C144.085 63.5145 144.103 63.5298 144.118 63.5482C144.132 63.5665 144.143 63.5877 144.15 63.6103C144.156 63.6329 144.158 63.6566 144.156 63.68C144.153 63.7034 144.146 63.726 144.134 63.7466C144.123 63.7672 144.107 63.7853 144.089 63.7998L140.516 66.6552C140.484 66.6805 140.444 66.6942 140.404 66.6942Z" fill="white"/>
<path d="M140.674 70.9772C140.596 71.0736 140.517 71.1699 140.435 71.2592C139.487 71.6885 138.455 71.9015 137.414 71.8826C136.373 71.8637 135.35 71.6134 134.418 71.1499C133.486 70.6864 132.669 70.0214 132.027 69.2031C131.385 68.3848 130.933 67.4339 130.705 66.4194L134.091 65.7972L140.674 66.4194C139.166 68.2539 139.349 68.8892 140.674 70.9772Z" fill="white"/>
<path d="M134.207 55.092C134.207 55.092 130.586 55.7724 129.748 60.2835C129.617 61.0443 129.593 61.8196 129.677 62.587C129.761 63.4553 129.64 65.2893 127.752 67.4489C126.52 68.8496 125.372 70.3218 124.315 71.8579L128.099 72.864L129.789 66.6021C130.609 63.5661 131.872 60.6673 133.537 57.9988L133.572 57.9431C133.572 57.9431 134.829 61.2972 138.197 61.757L137.158 60.3912C137.158 60.3912 141.096 62.6648 143.327 63.3594C143.582 63.4387 143.81 63.5859 143.987 63.7851C144.164 63.9843 144.283 64.228 144.332 64.4899C144.381 64.7519 144.357 65.0221 144.263 65.2715C144.169 65.5209 144.009 65.74 143.8 65.9053C143.784 65.9177 143.768 65.9302 143.752 65.9426C142.111 67.1875 138.763 70.1579 140.086 73.0314C141.408 75.9049 139.866 76.4288 139.866 76.4288L142.71 75.3481L144.012 74.7914L143.88 75.7527L150.235 75.8857C150.235 75.8857 151.952 75.8752 148.902 71.2971C148.902 71.2971 148.166 69.5804 148.77 68.269C149.255 67.2758 149.496 66.1817 149.474 65.0769C149.282 60.4613 147.335 51.0711 134.207 55.092Z" fill="#2F2E41"/>
<path d="M45.067 186.567C45.067 186.567 45.067 216.265 38.2431 224.054C38.2431 224.054 36.7809 227.949 36.2935 229.41C36.0209 230.241 35.6953 231.054 35.3186 231.844V233.791C35.3186 233.791 22.1583 232.331 20.696 228.923L23.1331 226.002C23.1331 226.002 23.6206 225.515 23.1331 224.054C22.6457 222.594 24.108 222.594 24.108 222.594L27.5199 214.804L27.0325 182.672L29.4696 138.369L50.4286 137.396L45.067 186.567Z" fill="#2F2E41"/>
<path d="M34.3438 230.87C34.3438 230.87 37.7558 241.094 34.3438 241.581C30.9319 242.068 1.19929 242.555 1.68671 238.66C2.17413 234.765 11.9225 235.252 11.9225 235.252L22.1583 228.923L34.3438 230.87Z" fill="#2F2E41"/>
<path d="M64.5638 138.369C64.5638 138.369 65.5386 144.698 61.6393 151.514C57.7399 158.33 60.177 181.212 60.177 181.212L94.7838 211.396C94.7838 211.396 87.9599 223.081 85.5229 222.594C83.0858 222.107 44.5796 190.949 44.5796 190.949L29.4696 140.317L64.5638 138.369Z" fill="#2F2E41"/>
<path d="M94.3082 210.106C94.3082 210.106 104.78 212.701 103.365 215.84C101.951 218.979 86.4449 244.324 83.4124 241.827C80.3798 239.331 86.0103 231.368 86.0103 231.368L86.138 219.344L94.3082 210.106Z" fill="#2F2E41"/>
<path d="M56.765 47.8168C56.7689 50.3816 55.8862 52.8691 54.266 54.859C52.9849 56.4448 51.2938 57.6504 49.376 58.3452C47.4581 59.04 45.3865 59.1975 43.3854 58.8007C42.3834 58.6073 41.4137 58.274 40.5047 57.8106C39.0611 57.0838 37.7921 56.0536 36.7847 54.7907C35.7773 53.5278 35.0555 52.0621 34.6689 50.4942C34.4511 49.6184 34.3417 48.7192 34.3432 47.8168C34.3432 44.8469 35.5243 41.9987 37.6268 39.8988C39.7292 37.7988 42.5808 36.619 45.5541 36.619C48.5274 36.619 51.3789 37.7988 53.4814 39.8988C55.5839 41.9987 56.765 44.8469 56.765 47.8168Z" fill="#A0616A"/>
<path d="M54.3752 51.7668L53.8793 66.1758L44.4464 69.8985C44.4464 69.8985 43.5213 55.1446 42.2155 54.3267C40.9097 53.5087 54.3752 51.7668 54.3752 51.7668Z" fill="#A0616A"/>
<path d="M42.1425 71.6714C42.1425 71.6714 55.3028 58.5265 58.7148 59.0134C62.1267 59.5002 62.1267 60.9608 62.1267 61.9345C62.1267 62.9082 61.1519 63.395 62.1267 63.8818C63.1016 64.3687 64.0764 63.8818 64.0764 65.3424C64.0764 66.8029 72.8499 81.4083 69.9254 97.4743C67.0009 113.54 63.589 121.33 65.0512 130.093C66.5135 138.856 65.5387 140.804 65.5387 140.804C65.5387 140.804 28.9822 143.725 28.4948 140.317C28.0074 136.909 29.957 138.856 27.5199 136.422C25.0828 133.988 26.0577 133.988 26.0577 132.527C26.0577 131.067 36.7809 71.6714 42.1425 71.6714Z" fill="#575A89"/>
<path d="M48.9664 137.883C48.9664 137.883 43.1174 152.001 38.7306 148.593C34.3438 145.185 40.6803 133.501 40.6803 133.501L48.9664 137.883Z" fill="white"/>
<path d="M63.1016 72.6451C63.1016 72.6451 74.5535 73.9547 70.2898 94.9646C66.0261 115.974 49.4538 140.317 49.4538 140.317L38.2432 134.962L52.8658 106.238L49.4538 88.2242C49.4538 88.2242 47.5041 71.1846 63.1016 72.6451Z" fill="#575A89"/>
<path opacity="0.2" d="M53.1096 106.481L37.0245 133.258L38.4868 134.718L53.1096 106.481Z" fill="black"/>
<path opacity="0.2" d="M61.6233 118.959L48.7227 140.073H53.1096L61.6233 118.959Z" fill="black"/>
<path opacity="0.2" d="M32.4821 157.33L31.8341 157.577L44.6605 191.167L45.3085 190.92L32.4821 157.33Z" fill="black"/>
<path d="M42.2116 74.3445C42.5945 74.3445 42.905 74.0344 42.905 73.6519C42.905 73.2694 42.5945 72.9594 42.2116 72.9594C41.8286 72.9594 41.5182 73.2694 41.5182 73.6519C41.5182 74.0344 41.8286 74.3445 42.2116 74.3445Z" fill="#D0CDE1"/>
<path d="M36.3178 93.044C36.3918 93.0439 36.4639 93.0202 36.5235 92.9763C36.5831 92.9324 36.6271 92.8705 36.6489 92.7998L42.5427 73.7542C42.5562 73.7107 42.5611 73.665 42.5569 73.6197C42.5528 73.5744 42.5397 73.5303 42.5185 73.49C42.4972 73.4497 42.4683 73.414 42.4332 73.3849C42.3982 73.3559 42.3577 73.334 42.3142 73.3205C42.2706 73.3071 42.2249 73.3023 42.1795 73.3066C42.1341 73.3108 42.09 73.3239 42.0498 73.3452C42.0095 73.3665 41.9738 73.3955 41.9447 73.4305C41.9157 73.4656 41.8938 73.5061 41.8804 73.5496L35.9866 92.5955C35.9707 92.6473 35.9671 92.7021 35.9762 92.7555C35.9853 92.809 36.0069 92.8595 36.0391 92.9031C36.0712 92.9467 36.1132 92.9822 36.1616 93.0066C36.21 93.0311 36.2635 93.0439 36.3178 93.044V93.044Z" fill="#D0CDE1"/>
<path d="M43.3064 56.3929L40.5048 59.055C37.6195 57.6047 34.8325 53.6968 34.046 50.4942L37.7218 48.9556C37.9618 52.2221 40.2832 54.3938 43.3064 56.3929Z" fill="white"/>
<path d="M44.0049 50.3501C43.9938 50.3501 43.9827 50.3494 43.9718 50.3478L37.4565 49.4182C37.4262 49.4139 37.3971 49.4037 37.3708 49.3881C37.3445 49.3726 37.3215 49.3521 37.3031 49.3276C37.2848 49.3032 37.2714 49.2755 37.2638 49.2459C37.2562 49.2163 37.2545 49.1856 37.2588 49.1553C37.2631 49.1251 37.2733 49.096 37.2888 49.0698C37.3044 49.0435 37.325 49.0205 37.3494 49.0022C37.3738 48.9838 37.4016 48.9705 37.4312 48.9629C37.4608 48.9553 37.4917 48.9536 37.5219 48.9579L44.0372 49.8875C44.0955 49.8958 44.1484 49.9258 44.1855 49.9715C44.2225 50.0172 44.2408 50.0752 44.2367 50.1338C44.2326 50.1925 44.2064 50.2474 44.1634 50.2875C44.1204 50.3276 44.0638 50.35 44.0049 50.3501Z" fill="white"/>
<path d="M43.0737 56.3929C43.033 56.3929 42.9931 56.3823 42.9578 56.3621C42.9226 56.342 42.8932 56.3129 42.8727 56.2779C42.8522 56.2428 42.8413 56.203 42.8409 56.1624C42.8406 56.1218 42.851 56.0819 42.871 56.0465L45.0297 52.2081C45.0446 52.1814 45.0647 52.1579 45.0887 52.139C45.1127 52.12 45.1403 52.106 45.1697 52.0977C45.1992 52.0895 45.23 52.0871 45.2604 52.0907C45.2908 52.0943 45.3201 52.1039 45.3468 52.1189C45.3735 52.1339 45.3969 52.154 45.4158 52.1781C45.4347 52.2021 45.4486 52.2297 45.4568 52.2591C45.465 52.2886 45.4673 52.3193 45.4636 52.3497C45.4599 52.38 45.4502 52.4093 45.4351 52.4359L43.2764 56.2744C43.2562 56.3104 43.2267 56.3403 43.1911 56.3611C43.1555 56.382 43.115 56.3929 43.0737 56.3929Z" fill="white"/>
<path d="M50.6285 54.5445C49.721 54.0652 48.6667 53.9663 47.6844 53.6684C44.1699 52.6026 41.8155 48.6343 42.5671 45.0433C42.706 44.5827 42.7684 44.1025 42.7517 43.6217C42.6203 42.5582 41.5308 41.872 40.486 41.6283C39.4413 41.3846 38.3296 41.42 37.3311 41.0281C35.7892 40.4231 34.7651 38.8405 34.5431 37.2008C34.321 35.5611 34.8081 33.8889 35.6004 32.4358L35.9778 33.5204C36.5533 33.0338 36.9806 32.3956 37.2109 31.6784C37.6397 31.7504 38.0429 31.9312 38.3818 32.2034C38.7208 32.4756 38.984 32.8301 39.1464 33.2331C39.7522 33.5899 39.8394 32.1247 40.5086 31.9085C40.7887 31.818 41.0768 31.99 41.3437 32.1143C42.692 32.7424 44.2584 32.2054 45.7047 31.8572C48.2092 31.2572 50.8198 31.2541 53.3256 31.8483C54.9904 32.2449 56.6383 32.9355 57.8295 34.1629C58.8078 35.1709 59.4174 36.4744 59.9364 37.7791C61.2141 40.9908 62.0582 44.4661 61.6364 47.8963C61.2851 50.7034 60.1094 53.3436 58.2575 55.484C57.2928 56.5942 54.1454 60.4673 52.4196 59.807C50.2511 58.9773 53.1836 55.8938 50.6285 54.5445Z" fill="#2F2E41"/>
</svg>
